<?xml version="1.0" encoding="utf-8"?>
<!-- Generator: Adobe Illustrator 25.2.0, SVG Export Plug-In . SVG Version: 6.00 Build 0)  -->
<svg version="1.1" id="Layer_1" xmlns="http://www.w3.org/2000/svg" xmlns:xlink="http://www.w3.org/1999/xlink" x="0px" y="0px"
	 viewBox="0 0 134 134" style="enable-background:new 0 0 134 134;" xml:space="preserve">
<style type="text/css">
	.st0{fill:#A9C6FF;}
</style>
<g>
	<g>
		<path class="st0" d="M70.9,79.5c-8.4,0-16.7,0-25,0c-5.8,0-10.7-4.4-11.6-9.9c-0.9-5.9,2.3-11.5,7.9-13.4c1.4-0.5,2.9-0.6,4.4-0.7
			c7.4-0.1,14.8,0,22.2,0c0.7,0,1.3,0,2.2,0c0.1-1,0.1-1.9,0.1-2.7c0-7,0-13.9,0-20.9c0-6.6-4.4-11-11-11c-9.6,0-19.1,0-28.7,0
			c-6.4,0-10.8,4.4-10.8,10.8c0,23.9,0,47.8,0,71.7c0,6.4,4.4,10.8,10.7,10.8c9.8,0,19.5,0,29.3,0c5.7,0,10.3-4.2,10.4-9.8
			c0.2-7.9,0.1-15.8,0.1-23.7C71.1,80.3,71,80,70.9,79.5z"/>
		<path d="M94.3,61.5c-1.4,0.2-2.2,0.4-3.1,0.4c-15,0-30.1,0-45.1,0c-3.1,0-5.3,1.7-5.3,5.5c0.1,3.4,2.2,5.2,5.2,5.2
			c11.9,0,23.8,0,35.6,0c3.4,0,6.7,0,10.1,0c0.7,0,1.3,0.4,2,0.7c-0.4,0.6-0.6,1.3-1.1,1.8c-2,2.1-4.1,4.2-6.2,6.2
			c-3.1,3-2.4,5.7,0.1,8.4c1.5,1.6,5,1.6,6.8-0.1c3.5-3.3,6.8-6.8,10.2-10.1c2.4-2.3,4.9-4.5,7.2-7c1.4-1.5,3.6-3,2.8-5.6
			c-0.5-1.5-1.3-3.1-2.4-4.2c-5.6-5.8-11.4-11.5-17.1-17.2c-1.7-1.7-3.6-2.4-6-1.5c-2.3,0.8-3.5,2.7-3.6,5c-0.1,1.2,0.8,2.7,1.6,3.7
			c2,2.3,4.3,4.4,6.5,6.6C93.1,59.9,93.5,60.5,94.3,61.5z"/>
	</g>
</g>
<g>
	<path d="M47,44.8v1.9h3.4v1.6H47v2.3h4.2v1.6h-5.9v-9h5.9v1.6H47z"/>
	<path d="M56.7,48.8l2.4,3.4H57l-1.4-2.1l-1.4,2.1h-2.1l2.4-3.4l-2.4-3.3h2.1l1.3,2l1.3-2H59L56.7,48.8z"/>
	<path d="M61.9,43v1.5h-1.7V43H61.9z M61.9,45.5v6.7h-1.7v-6.7H61.9z"/>
	<path d="M65.9,49.3c0,0.5,0,1,0.1,1.2c0.2,0.3,0.5,0.4,0.7,0.4c0.3,0,0.7,0,1.1,0v1.4c-0.5,0.2-1.5,0.1-2,0c-0.6-0.1-1-0.3-1.4-0.8
		c-0.4-0.5-0.3-1.2-0.3-2.1v-2.6H63v-1.3h1.1v-1.9h1.7v1.9h1.9v1.3h-1.9V49.3z"/>
</g>
</svg>
