<?xml version="1.0" encoding="utf-8"?>
<!-- Generator: Adobe Illustrator 25.2.0, SVG Export Plug-In . SVG Version: 6.00 Build 0)  -->
<svg version="1.1" id="Layer_1" xmlns="http://www.w3.org/2000/svg" xmlns:xlink="http://www.w3.org/1999/xlink" x="0px" y="0px"
	 viewBox="0 0 50 50" style="enable-background:new 0 0 50 50;" xml:space="preserve">
<style type="text/css">
	.Drop_x0020_Shadow{fill:none;}
	.Outer_x0020_Glow_x0020_5_x0020_pt{fill:none;}
	.Blue_x0020_Neon{fill:none;stroke:#8AACDA;stroke-width:7;stroke-linecap:round;stroke-linejoin:round;}
	.Chrome_x0020_Highlight{fill:url(#SVGID_1_);stroke:#FFFFFF;stroke-width:0.3629;stroke-miterlimit:1;}
	.Jive_GS{fill:#FFDD00;}
	.Alyssa_GS{fill:#A6D0E4;}
	.st0{fill:url(#SVGID_2_);}
	.st1{fill:url(#SVGID_3_);}
	.st2{fill:url(#SVGID_4_);}
	.st3{fill:url(#SVGID_5_);}
</style>
<linearGradient id="SVGID_1_" gradientUnits="userSpaceOnUse" x1="0" y1="0" x2="6.123234e-17" y2="-1">
	<stop  offset="0" style="stop-color:#656565"/>
	<stop  offset="0.618" style="stop-color:#1B1B1B"/>
	<stop  offset="0.6292" style="stop-color:#545454"/>
	<stop  offset="0.9831" style="stop-color:#3E3E3E"/>
</linearGradient>
<g>
	<linearGradient id="SVGID_2_" gradientUnits="userSpaceOnUse" x1="1.5376" y1="26.3827" x2="45.3011" y2="26.3827">
		<stop  offset="0" style="stop-color:#3BC5F3"/>
		<stop  offset="1" style="stop-color:#3751A2"/>
	</linearGradient>
	<path class="st0" d="M28.4,4.5c0,1.1,0,2.1,0,3.2c-7.9,0-15.7,0-23.6,0c0,12.5,0,24.8,0,37.1c12.4,0,24.6,0,37.1,0
		c0-7.8,0-15.6,0-23.4c1.2,0,2.2,0,3.4,0c0,0.4,0,0.8,0,1.2c0,7.2,0,14.5,0,21.7c0,2.7-1.3,4-3.9,4c-12,0-23.9,0-35.9,0
		c-2.6,0-4-1.3-4-4c0-12,0-24,0-36c0-2.6,1.3-3.9,3.9-3.9c7.3,0,14.6,0,21.8,0C27.6,4.5,28,4.5,28.4,4.5z"/>
	<linearGradient id="SVGID_3_" gradientUnits="userSpaceOnUse" x1="19.3591" y1="18.7079" x2="42.6276" y2="18.7079">
		<stop  offset="0" style="stop-color:#3BC5F3"/>
		<stop  offset="1" style="stop-color:#3751A2"/>
	</linearGradient>
	<path class="st1" d="M35.8,7.1c2.2,2.2,4.5,4.5,6.8,6.8c-5.5,5.4-11,10.9-16.4,16.3c-2.2-2.2-4.5-4.6-6.8-6.9
		C24.8,18,30.3,12.6,35.8,7.1z"/>
	<linearGradient id="SVGID_4_" gradientUnits="userSpaceOnUse" x1="38.1926" y1="6.2161" x2="48.5823" y2="6.2161">
		<stop  offset="0" style="stop-color:#3BC5F3"/>
		<stop  offset="1" style="stop-color:#3751A2"/>
	</linearGradient>
	<path class="st2" d="M45.4,11.4c-2.4-2.4-4.8-4.8-7.2-7.2C39.1,3.4,40,2.4,41,1.6c1.3-1,2.8-0.8,4,0.3c0.9,0.8,1.8,1.7,2.6,2.6
		c1.2,1.3,1.2,3.1,0,4.4C47,9.9,46.2,10.6,45.4,11.4z"/>
	<linearGradient id="SVGID_5_" gradientUnits="userSpaceOnUse" x1="13.208" y1="31.1869" x2="23.7203" y2="31.1869">
		<stop  offset="0" style="stop-color:#3BC5F3"/>
		<stop  offset="1" style="stop-color:#3751A2"/>
	</linearGradient>
	<path class="st3" d="M13.2,36.5c1.1-3.6,2.1-7.1,3.2-10.6c2.5,2.5,4.8,4.9,7.3,7.3C20.3,34.3,16.9,35.3,13.2,36.5z"/>
</g>
</svg>
