<?xml version="1.0" encoding="utf-8"?>
<!-- Generator: Adobe Illustrator 25.2.0, SVG Export Plug-In . SVG Version: 6.00 Build 0)  -->
<svg version="1.1" id="Layer_1" xmlns="http://www.w3.org/2000/svg" xmlns:xlink="http://www.w3.org/1999/xlink" x="0px" y="0px"
	 viewBox="0 0 50 50" style="enable-background:new 0 0 50 50;" xml:space="preserve">
<style type="text/css">
	.Drop_x0020_Shadow{fill:none;}
	.Outer_x0020_Glow_x0020_5_x0020_pt{fill:none;}
	.Blue_x0020_Neon{fill:none;stroke:#8AACDA;stroke-width:7;stroke-linecap:round;stroke-linejoin:round;}
	.Chrome_x0020_Highlight{fill:url(#SVGID_1_);stroke:#FFFFFF;stroke-width:0.3629;stroke-miterlimit:1;}
	.Jive_GS{fill:#FFDD00;}
	.Alyssa_GS{fill:#A6D0E4;}
	.st0{fill:url(#SVGID_2_);}
	.st1{fill:url(#SVGID_3_);}
	.st2{fill:url(#SVGID_4_);}
	.st3{fill:url(#SVGID_5_);}
	.st4{fill:url(#SVGID_6_);}
	.st5{fill:url(#SVGID_7_);}
	.st6{fill:url(#SVGID_8_);}
</style>
<linearGradient id="SVGID_1_" gradientUnits="userSpaceOnUse" x1="0" y1="0" x2="6.123234e-17" y2="-1">
	<stop  offset="0" style="stop-color:#656565"/>
	<stop  offset="0.618" style="stop-color:#1B1B1B"/>
	<stop  offset="0.6292" style="stop-color:#545454"/>
	<stop  offset="0.9831" style="stop-color:#3E3E3E"/>
</linearGradient>
<g>
	<linearGradient id="SVGID_2_" gradientUnits="userSpaceOnUse" x1="206.5376" y1="53.3827" x2="250.3011" y2="53.3827">
		<stop  offset="0" style="stop-color:#3BC5F3"/>
		<stop  offset="1" style="stop-color:#3751A2"/>
	</linearGradient>
	<path class="st0" d="M233.4,31.5c0,1.1,0,2.1,0,3.2c-7.9,0-15.7,0-23.6,0c0,12.5,0,24.8,0,37.1c12.4,0,24.6,0,37.1,0
		c0-7.8,0-15.6,0-23.4c1.2,0,2.2,0,3.4,0c0,0.4,0,0.8,0,1.2c0,7.2,0,14.5,0,21.7c0,2.7-1.3,4-3.9,4c-12,0-23.9,0-35.9,0
		c-2.6,0-4-1.3-4-4c0-12,0-24,0-36c0-2.6,1.3-3.9,3.9-3.9c7.3,0,14.6,0,21.8,0C232.6,31.5,233,31.5,233.4,31.5z"/>
	<linearGradient id="SVGID_3_" gradientUnits="userSpaceOnUse" x1="224.3591" y1="45.7079" x2="247.6276" y2="45.7079">
		<stop  offset="0" style="stop-color:#3BC5F3"/>
		<stop  offset="1" style="stop-color:#3751A2"/>
	</linearGradient>
	<path class="st1" d="M240.8,34.1c2.2,2.2,4.5,4.5,6.8,6.8c-5.5,5.4-11,10.9-16.4,16.3c-2.2-2.2-4.5-4.6-6.8-6.9
		C229.8,45,235.3,39.6,240.8,34.1z"/>
	<linearGradient id="SVGID_4_" gradientUnits="userSpaceOnUse" x1="243.1926" y1="33.2161" x2="253.5823" y2="33.2161">
		<stop  offset="0" style="stop-color:#3BC5F3"/>
		<stop  offset="1" style="stop-color:#3751A2"/>
	</linearGradient>
	<path class="st2" d="M250.4,38.4c-2.4-2.4-4.8-4.8-7.2-7.2c0.9-0.9,1.8-1.8,2.8-2.6c1.3-1,2.8-0.8,4,0.3c0.9,0.8,1.8,1.7,2.6,2.6
		c1.2,1.3,1.2,3.1,0,4.4C252,36.9,251.2,37.6,250.4,38.4z"/>
	<linearGradient id="SVGID_5_" gradientUnits="userSpaceOnUse" x1="218.208" y1="58.1869" x2="228.7202" y2="58.1869">
		<stop  offset="0" style="stop-color:#3BC5F3"/>
		<stop  offset="1" style="stop-color:#3751A2"/>
	</linearGradient>
	<path class="st3" d="M218.2,63.5c1.1-3.6,2.1-7.1,3.2-10.6c2.5,2.5,4.8,4.9,7.3,7.3C225.3,61.3,221.9,62.3,218.2,63.5z"/>
</g>
<g>
	<linearGradient id="SVGID_6_" gradientUnits="userSpaceOnUse" x1="11.8708" y1="31.9121" x2="39.5119" y2="31.9121">
		<stop  offset="0" style="stop-color:#3BC5F3"/>
		<stop  offset="1" style="stop-color:#3751A2"/>
	</linearGradient>
	<path class="st4" d="M11.9,19.7c9.2,0,18.4,0,27.6,0c0,0.3,0,0.7,0,1c0,2.3,0,4.6,0,6.9c0,3.8,0,7.7,0,11.5c0,0.7-0.1,1.4-0.4,2.1
		c-0.7,1.7-2.4,2.8-4.2,2.8c-6.1,0-12.2,0-18.4,0c-2.6,0-4.6-1.9-4.7-4.5c0-1,0-1.9,0-2.9c0-3.6,0-7.2,0-10.8c0-1.9,0-3.9,0-5.8
		C11.9,20,11.9,19.9,11.9,19.7z M16.4,31.4C16.4,31.4,16.4,31.4,16.4,31.4c0,2.1,0,4.3,0,6.4c0,0.2,0,0.4,0,0.6
		c0.1,0.3,0.3,0.5,0.6,0.5c0.3,0,0.5-0.2,0.6-0.5c0-0.1,0-0.3,0-0.4c0-4.4,0-8.8,0-13.1c0-0.1,0-0.3,0-0.4c-0.1-0.3-0.3-0.5-0.6-0.5
		c-0.2,0-0.5,0.2-0.6,0.3c-0.1,0.1-0.1,0.3-0.1,0.5C16.4,27,16.4,29.2,16.4,31.4z M33.4,31.4C33.4,31.4,33.4,31.4,33.4,31.4
		c0,1.8,0,3.7,0,5.5c0,0.4,0,0.9,0,1.3c0,0.4,0.3,0.7,0.7,0.7c0.4,0,0.6-0.3,0.7-0.7c0-0.1,0-0.2,0-0.3c0-4.3,0-8.7,0-13
		c0-0.1,0-0.3,0-0.4c-0.1-0.2-0.2-0.5-0.4-0.6c-0.5-0.2-0.9,0.1-0.9,0.7C33.4,26.9,33.4,29.2,33.4,31.4z M25,31.4
		C25,31.4,25,31.4,25,31.4c0,1.7,0,3.4,0,5.1c0,0.5,0.3,0.8,0.7,0.8c0.4,0,0.7-0.4,0.7-0.8c0-3.4,0-6.7,0-10.1c0-0.1,0-0.2,0-0.4
		c-0.1-0.5-0.5-0.7-0.9-0.6c-0.3,0.1-0.4,0.3-0.4,0.7C25,27.9,25,29.7,25,31.4z"/>
	<linearGradient id="SVGID_7_" gradientUnits="userSpaceOnUse" x1="8.3835" y1="14.625" x2="43" y2="14.625">
		<stop  offset="0" style="stop-color:#3BC5F3"/>
		<stop  offset="1" style="stop-color:#3751A2"/>
	</linearGradient>
	<path class="st5" d="M25.7,18.4c-4.5,0-9,0-13.6,0c-2.1,0-3.8-1.8-3.7-3.9c0.1-2,1.7-3.6,3.8-3.6c4.4,0,8.8,0,13.2,0
		c4.6,0,9.2,0,13.9,0c2.1,0,3.8,1.6,3.8,3.7c0,2.1-1.6,3.8-3.8,3.8C34.7,18.4,30.2,18.4,25.7,18.4z"/>
	<linearGradient id="SVGID_8_" gradientUnits="userSpaceOnUse" x1="18.5399" y1="7.7207" x2="32.8523" y2="7.7207">
		<stop  offset="0" style="stop-color:#3BC5F3"/>
		<stop  offset="1" style="stop-color:#3751A2"/>
	</linearGradient>
	<path class="st6" d="M32.9,9.5c-0.6,0-1.2,0-1.8,0c0-0.6,0-1.1,0-1.7c-3.6,0-7.1,0-10.7,0c0,0.5,0,1.1,0,1.7c-0.6,0-1.2,0-1.8,0
		c0-0.3,0-0.6,0-0.9c0-0.5,0-1.1,0-1.6c0-0.7,0.3-1,1-1c0.4,0,0.8,0,1.3,0c3.6,0,7.3,0,10.9,0c0.8,0,1.1,0.3,1.1,1.1
		C32.9,7.9,32.9,8.7,32.9,9.5z"/>
</g>
</svg>
