<?xml version="1.0" encoding="utf-8"?>
<!-- Generator: Adobe Illustrator 25.2.0, SVG Export Plug-In . SVG Version: 6.00 Build 0)  -->
<svg version="1.1" id="Layer_1" xmlns="http://www.w3.org/2000/svg" xmlns:xlink="http://www.w3.org/1999/xlink" x="0px" y="0px"
	 viewBox="0 0 139 174" style="enable-background:new 0 0 139 174;" xml:space="preserve">
<style type="text/css">
	.Drop_x0020_Shadow{fill:none;}
	.Outer_x0020_Glow_x0020_5_x0020_pt{fill:none;}
	.Blue_x0020_Neon{fill:none;stroke:#8AACDA;stroke-width:7;stroke-linecap:round;stroke-linejoin:round;}
	.Chrome_x0020_Highlight{fill:url(#SVGID_1_);stroke:#FFFFFF;stroke-width:0.3629;stroke-miterlimit:1;}
	.Jive_GS{fill:#FFDD00;}
	.Alyssa_GS{fill:#A6D0E4;}
	.st0{fill:url(#SVGID_2_);}
	.st1{fill:url(#SVGID_3_);}
	.st2{fill:url(#SVGID_4_);}
	.st3{fill:url(#SVGID_5_);}
	.st4{fill:url(#SVGID_6_);}
	.st5{fill:url(#SVGID_7_);}
	.st6{fill:url(#SVGID_8_);}
	.st7{fill:url(#SVGID_9_);}
	.st8{fill:url(#SVGID_10_);}
	.st9{fill:url(#SVGID_11_);}
	.st10{fill:url(#SVGID_12_);}
	.st11{fill:url(#SVGID_13_);}
	.st12{fill:url(#SVGID_14_);}
	.st13{fill:url(#SVGID_15_);}
	.st14{fill:url(#SVGID_16_);}
	.st15{fill:url(#SVGID_17_);}
	.st16{fill:url(#SVGID_18_);}
	.st17{fill:url(#SVGID_19_);}
	.st18{fill:url(#SVGID_20_);}
	.st19{fill:url(#SVGID_21_);}
	.st20{fill:url(#SVGID_22_);}
	.st21{fill:url(#SVGID_23_);}
	.st22{fill:url(#SVGID_24_);}
	.st23{fill:url(#SVGID_25_);}
	.st24{fill:url(#SVGID_26_);}
	.st25{fill:url(#SVGID_27_);}
	.st26{fill:url(#SVGID_28_);}
	.st27{fill:url(#SVGID_29_);}
</style>
<linearGradient id="SVGID_1_" gradientUnits="userSpaceOnUse" x1="-1124" y1="1497" x2="-1124" y2="1496">
	<stop  offset="0" style="stop-color:#656565"/>
	<stop  offset="0.618" style="stop-color:#1B1B1B"/>
	<stop  offset="0.6292" style="stop-color:#545454"/>
	<stop  offset="0.9831" style="stop-color:#3E3E3E"/>
</linearGradient>
<g>
	<linearGradient id="SVGID_2_" gradientUnits="userSpaceOnUse" x1="-1027.6346" y1="1651.5082" x2="-486.165" y2="2195.0525">
		<stop  offset="0" style="stop-color:#3BC5F3"/>
		<stop  offset="1" style="stop-color:#3751A2"/>
	</linearGradient>
	<path class="st0" d="M-819.8,1921.7h-16.9v-103.9h37.9c4.6,0,8.9,0.7,13,2c4.1,1.3,7.6,3.6,10.6,6.6c3,3.1,5.4,7.1,7.2,12
		c1.8,4.9,2.7,11,2.7,18.3s-0.9,13.4-2.7,18.3c-1.8,4.9-4.2,8.9-7.2,12c-3,3.1-6.6,5.3-10.6,6.6c-4.1,1.3-8.4,2-13,2h-21V1921.7z
		 M-801,1881.1c2.6,0,5-0.4,7.3-1.2c2.3-0.8,4.3-2.1,6-4s3-4.4,4-7.5c1-3.1,1.5-7,1.5-11.7s-0.5-8.6-1.5-11.7c-1-3.1-2.3-5.6-4-7.5
		c-1.7-1.9-3.7-3.2-6-4c-2.3-0.8-4.7-1.2-7.3-1.2h-18.8v48.6H-801z"/>
	<linearGradient id="SVGID_3_" gradientUnits="userSpaceOnUse" x1="-978.6978" y1="1602.7581" x2="-437.2281" y2="2146.3022">
		<stop  offset="0" style="stop-color:#3BC5F3"/>
		<stop  offset="1" style="stop-color:#3751A2"/>
	</linearGradient>
	<path class="st1" d="M-754.8,1847.3c0-5.5,0.9-10.1,2.7-13.8c1.8-3.8,4.2-6.8,7.2-9.2c3-2.3,6.6-4,10.7-5c4.1-1,8.4-1.5,13-1.5
		h24.9v31.2h-16.9v-16.5h-5.8c-2.6,0-5,0.3-7.3,0.8c-2.3,0.5-4.3,1.4-6,2.5c-1.7,1.2-3,2.7-4,4.5c-1,1.9-1.5,4.2-1.5,6.9v48.4h-16.9
		V1847.3z"/>
	<linearGradient id="SVGID_4_" gradientUnits="userSpaceOnUse" x1="-939.1549" y1="1563.3661" x2="-397.6852" y2="2106.9104">
		<stop  offset="0" style="stop-color:#3BC5F3"/>
		<stop  offset="1" style="stop-color:#3751A2"/>
	</linearGradient>
	<path class="st2" d="M-666.8,1893.7c-4.1-1.3-7.6-3.5-10.7-6.6c-3-3.1-5.4-7.1-7.2-12c-1.8-4.9-2.7-11-2.7-18.3s0.9-13.4,2.7-18.3
		c1.8-4.9,4.2-8.9,7.2-12c3-3.1,6.6-5.3,10.7-6.6c4.1-1.3,8.4-2,13-2h29v14.7h-26.8c-2.3,0-4.4,0.3-6.4,0.8c-2,0.6-3.8,1.5-5.4,2.8
		c-1.6,1.3-3,3-4.1,5.2c-1.1,2.2-1.9,4.9-2.5,8.1h45.1v14.8h-45.1c0.5,3.3,1.3,6,2.5,8.2c1.1,2.2,2.5,3.9,4.1,5.2
		c1.6,1.3,3.4,2.2,5.4,2.7c2,0.5,4.1,0.8,6.4,0.8h26.8v14.7h-29C-658.4,1895.8-662.7,1895.1-666.8,1893.7z"/>
	<linearGradient id="SVGID_5_" gradientUnits="userSpaceOnUse" x1="-907.2554" y1="1531.5883" x2="-365.7857" y2="2075.1326">
		<stop  offset="0" style="stop-color:#3BC5F3"/>
		<stop  offset="1" style="stop-color:#3751A2"/>
	</linearGradient>
	<path class="st3" d="M-609.3,1849.7h51.9v14.3h-51.9V1849.7z"/>
	<linearGradient id="SVGID_6_" gradientUnits="userSpaceOnUse" x1="-879.6" y1="1504.0385" x2="-338.1304" y2="2047.5828">
		<stop  offset="0" style="stop-color:#3BC5F3"/>
		<stop  offset="1" style="stop-color:#3751A2"/>
	</linearGradient>
	<path class="st4" d="M-524.8,1921.7h-16.9v-103.9h37.9c4.6,0,8.9,0.7,13,2c4.1,1.3,7.6,3.6,10.6,6.6c3,3.1,5.4,7.1,7.2,12
		c1.8,4.9,2.7,11,2.7,18.3s-0.9,13.4-2.7,18.3c-1.8,4.9-4.2,8.9-7.2,12c-3,3.1-6.6,5.3-10.6,6.6c-4.1,1.3-8.4,2-13,2h-21V1921.7z
		 M-506,1881.1c2.6,0,5-0.4,7.3-1.2c2.3-0.8,4.3-2.1,6-4s3-4.4,4-7.5c1-3.1,1.5-7,1.5-11.7s-0.5-8.6-1.5-11.7c-1-3.1-2.3-5.6-4-7.5
		c-1.7-1.9-3.7-3.2-6-4c-2.3-0.8-4.7-1.2-7.3-1.2h-18.8v48.6H-506z"/>
	<linearGradient id="SVGID_7_" gradientUnits="userSpaceOnUse" x1="-829.7271" y1="1454.3558" x2="-288.2574" y2="1997.9001">
		<stop  offset="0" style="stop-color:#3BC5F3"/>
		<stop  offset="1" style="stop-color:#3751A2"/>
	</linearGradient>
	<path class="st5" d="M-462.5,1871.5c0-4.6,0.6-8.4,1.8-11.6c1.2-3.1,2.9-5.6,4.9-7.5c2.1-1.9,4.5-3.2,7.3-4c2.8-0.8,5.8-1.2,9-1.2
		h31.4c0-2.7-0.5-5-1.6-6.9c-1-1.9-2.4-3.4-4.1-4.5c-1.7-1.1-3.7-2-5.9-2.5c-2.3-0.5-4.7-0.8-7.3-0.8h-30.5v-14.7h32.7
		c4.6,0,8.9,0.5,12.9,1.5c4,1,7.6,2.7,10.7,5c3.1,2.3,5.5,5.4,7.3,9.1c1.8,3.7,2.7,8.3,2.7,13.8v48.6h-48.3c-3.2,0-6.2-0.4-9-1.2
		c-2.8-0.8-5.3-2.2-7.3-4.1c-2.1-1.9-3.7-4.4-4.9-7.5C-461.9,1879.8-462.5,1876-462.5,1871.5z M-445.6,1871.5c0,3.6,1,6,2.9,7.5
		c1.9,1.4,4.2,2.1,6.8,2.1h27.9v-19.4h-27.9c-2.6,0-4.9,0.7-6.8,2.1C-444.6,1865.2-445.6,1867.8-445.6,1871.5z"/>
	<linearGradient id="SVGID_8_" gradientUnits="userSpaceOnUse" x1="-789.598" y1="1414.38" x2="-248.1284" y2="1957.9243">
		<stop  offset="0" style="stop-color:#3BC5F3"/>
		<stop  offset="1" style="stop-color:#3751A2"/>
	</linearGradient>
	<path class="st6" d="M-378.1,1847.3c0-5.5,0.9-10.1,2.7-13.8c1.8-3.8,4.2-6.8,7.2-9.2s6.6-4,10.7-5c4.1-1,8.4-1.5,13-1.5h24.9v31.2
		h-16.9v-16.5h-5.8c-2.6,0-5,0.3-7.3,0.8c-2.3,0.5-4.3,1.4-6,2.5c-1.7,1.2-3,2.7-4,4.5c-1,1.9-1.5,4.2-1.5,6.9v48.4h-16.9V1847.3z"
		/>
	<linearGradient id="SVGID_9_" gradientUnits="userSpaceOnUse" x1="-751.4958" y1="1376.4233" x2="-210.0262" y2="1919.9675">
		<stop  offset="0" style="stop-color:#3BC5F3"/>
		<stop  offset="1" style="stop-color:#3751A2"/>
	</linearGradient>
	<path class="st7" d="M-309,1791.9h18.2v60.9l30.5-34.9h23.4l-34.7,39l34.7,39h-23.4l-30.5-34.9v34.9H-309V1791.9z"/>
	<linearGradient id="SVGID_10_" gradientUnits="userSpaceOnUse" x1="-718.7665" y1="1343.819" x2="-177.2969" y2="1887.3632">
		<stop  offset="0" style="stop-color:#3BC5F3"/>
		<stop  offset="1" style="stop-color:#3751A2"/>
	</linearGradient>
	<path class="st8" d="M-229.1,1791.9h16.9v16.9h-16.9V1791.9z M-229.1,1817.8h16.9v77.9h-16.9V1817.8z"/>
	<linearGradient id="SVGID_11_" gradientUnits="userSpaceOnUse" x1="-699.9575" y1="1325.0817" x2="-158.4879" y2="1868.626">
		<stop  offset="0" style="stop-color:#3BC5F3"/>
		<stop  offset="1" style="stop-color:#3751A2"/>
	</linearGradient>
	<path class="st9" d="M-196.7,1817.8h35.3c4.6,0,8.9,0.5,13,1.5c4.1,1,7.6,2.7,10.7,5c3,2.3,5.4,5.4,7.2,9.2
		c1.8,3.8,2.7,8.4,2.7,13.8v48.4h-16.9v-48.4c0-2.8-0.5-5.1-1.5-6.9c-1-1.9-2.3-3.4-4-4.5c-1.7-1.2-3.7-2-6-2.5
		c-2.3-0.5-4.7-0.8-7.3-0.8h-16.2v63.2h-16.9V1817.8z"/>
	<linearGradient id="SVGID_12_" gradientUnits="userSpaceOnUse" x1="-660.7014" y1="1285.9753" x2="-119.2317" y2="1829.5195">
		<stop  offset="0" style="stop-color:#3BC5F3"/>
		<stop  offset="1" style="stop-color:#3751A2"/>
	</linearGradient>
	<path class="st10" d="M-76.5,1907.1c3.8,0,7-0.8,9.7-2.5c2.6-1.7,4-4.6,4-8.8h-21c-4.6,0-8.9-0.7-13-2c-4.1-1.3-7.6-3.5-10.7-6.6
		c-3-3.1-5.4-7.1-7.2-12c-1.8-4.9-2.7-11-2.7-18.3s0.9-13.4,2.7-18.3c1.8-4.9,4.2-8.9,7.2-12c3-3.1,6.6-5.3,10.7-6.6
		c4.1-1.3,8.4-2,13-2H-46v77.9c0,4.8-0.7,8.9-2,12.2c-1.3,3.3-3.2,6-5.5,8c-2.3,2-5.1,3.5-8.2,4.4c-3.1,0.9-6.5,1.4-10,1.4h-40.5
		v-14.7H-76.5z M-62.9,1881.1v-48.6h-18.8c-2.6,0-5,0.4-7.3,1.2c-2.3,0.8-4.3,2.1-6,4c-1.7,1.9-3,4.4-4,7.5c-1,3.1-1.5,7-1.5,11.7
		s0.5,8.6,1.5,11.7c1,3.1,2.3,5.6,4,7.5c1.7,1.9,3.7,3.2,6,4c2.3,0.8,4.7,1.2,7.3,1.2H-62.9z"/>
</g>
<g>
	<linearGradient id="SVGID_13_" gradientUnits="userSpaceOnUse" x1="-1067.6736" y1="1691.3943" x2="-526.2039" y2="2234.9385">
		<stop  offset="0" style="stop-color:#3BC5F3"/>
		<stop  offset="1" style="stop-color:#3751A2"/>
	</linearGradient>
	<path class="st11" d="M-795.9,1970.1c-0.7,0-1.4-0.1-2.1-0.3c-0.7-0.2-1.3-0.5-1.9-0.9c-0.6-0.4-1.1-0.8-1.4-1.3
		c-0.4-0.5-0.6-1-0.8-1.4l0.8-0.4v4h-3.2v-23.2h3.2v10.6l-0.5-0.3c0.1-0.5,0.3-1,0.7-1.4c0.4-0.5,0.8-0.9,1.4-1.2
		c0.6-0.4,1.2-0.7,1.8-0.9c0.6-0.2,1.3-0.3,2-0.3c1.5,0,2.8,0.4,4,1.1s2.1,1.7,2.7,3c0.7,1.3,1,2.8,1,4.4c0,1.7-0.3,3.1-1,4.4
		c-0.7,1.3-1.6,2.3-2.7,3.1C-793.2,1969.8-794.5,1970.1-795.9,1970.1z M-796.5,1967.2c1,0,1.8-0.2,2.6-0.7s1.4-1.2,1.8-2
		c0.4-0.9,0.7-1.8,0.7-2.9c0-1.1-0.2-2-0.6-2.9c-0.4-0.8-1-1.5-1.8-2c-0.8-0.5-1.6-0.7-2.6-0.7c-1,0-1.9,0.2-2.6,0.7s-1.4,1.2-1.8,2
		c-0.4,0.9-0.7,1.8-0.7,2.9c0,1.1,0.2,2.1,0.7,2.9c0.4,0.9,1,1.5,1.8,2S-797.5,1967.2-796.5,1967.2z"/>
	<linearGradient id="SVGID_14_" gradientUnits="userSpaceOnUse" x1="-1042.0759" y1="1665.8943" x2="-500.6063" y2="2209.4385">
		<stop  offset="0" style="stop-color:#3BC5F3"/>
		<stop  offset="1" style="stop-color:#3751A2"/>
	</linearGradient>
	<path class="st12" d="M-751.2,1949.6c-0.7,0-1.2-0.2-1.6-0.5c-0.4-0.4-0.6-0.9-0.6-1.5c0-0.6,0.2-1.1,0.6-1.5
		c0.4-0.4,0.9-0.6,1.6-0.6c0.7,0,1.2,0.2,1.6,0.5s0.6,0.9,0.6,1.5c0,0.6-0.2,1.1-0.6,1.5C-750,1949.4-750.5,1949.6-751.2,1949.6z
		 M-752.7,1969.8v-16.5h3.2v16.5H-752.7z"/>
	<linearGradient id="SVGID_15_" gradientUnits="userSpaceOnUse" x1="-1020.9471" y1="1644.8462" x2="-479.4775" y2="2188.3904">
		<stop  offset="0" style="stop-color:#3BC5F3"/>
		<stop  offset="1" style="stop-color:#3751A2"/>
	</linearGradient>
	<path class="st13" d="M-713,1969.8v-23.3h3.2v23.3H-713z M-710,1964.7l-0.2-3.5l7.9-7.8h4.4L-710,1964.7z M-701.8,1969.8l-6.2-7.3
		l2.3-2.1l8.1,9.4H-701.8z"/>
	<linearGradient id="SVGID_16_" gradientUnits="userSpaceOnUse" x1="-996.6645" y1="1620.6561" x2="-455.1949" y2="2164.2004">
		<stop  offset="0" style="stop-color:#3BC5F3"/>
		<stop  offset="1" style="stop-color:#3751A2"/>
	</linearGradient>
	<path class="st14" d="M-656.6,1970.1c-1.7,0-3.2-0.4-4.5-1.1c-1.3-0.7-2.3-1.7-3.1-3c-0.7-1.3-1.1-2.7-1.1-4.3
		c0-1.3,0.2-2.5,0.6-3.6c0.4-1.1,1-2,1.7-2.8c0.7-0.8,1.6-1.4,2.7-1.8c1-0.4,2.2-0.6,3.4-0.6c1.1,0,2.1,0.2,3,0.6
		c0.9,0.4,1.7,1,2.4,1.7c0.7,0.7,1.2,1.6,1.6,2.5c0.4,1,0.5,2,0.5,3.2l0,1.4h-13.5l-0.7-2.6h11.4l-0.5,0.5v-0.8
		c-0.1-0.7-0.3-1.3-0.7-1.9c-0.4-0.5-0.9-1-1.5-1.3c-0.6-0.3-1.3-0.5-2-0.5c-1.1,0-2.1,0.2-2.9,0.6s-1.4,1.1-1.8,1.9
		c-0.4,0.8-0.6,1.9-0.6,3.1c0,1.2,0.2,2.2,0.7,3c0.5,0.9,1.2,1.5,2,2c0.9,0.5,1.9,0.7,3.1,0.7c0.8,0,1.6-0.1,2.3-0.4
		c0.7-0.3,1.5-0.8,2.3-1.5l1.6,2.3c-0.5,0.5-1.1,0.9-1.8,1.3s-1.5,0.7-2.3,0.9C-655,1970-655.8,1970.1-656.6,1970.1z"/>
	<linearGradient id="SVGID_17_" gradientUnits="userSpaceOnUse" x1="-951.3174" y1="1575.4822" x2="-409.8478" y2="2119.0264">
		<stop  offset="0" style="stop-color:#3BC5F3"/>
		<stop  offset="1" style="stop-color:#3751A2"/>
	</linearGradient>
	<path class="st15" d="M-566.9,1970.1c-1.5,0-2.9-0.4-4.1-1.1s-2.2-1.8-2.9-3.1c-0.7-1.3-1.1-2.8-1.1-4.4c0-1.6,0.4-3.1,1.1-4.4
		c0.7-1.3,1.7-2.3,2.9-3.1c1.2-0.8,2.6-1.1,4.1-1.1c1.5,0,2.8,0.3,4,0.9c1.2,0.6,2.1,1.4,2.8,2.4l-1.8,2.2c-0.3-0.5-0.8-0.9-1.3-1.3
		c-0.5-0.4-1.1-0.7-1.7-0.9c-0.6-0.2-1.2-0.3-1.7-0.3c-1,0-1.9,0.2-2.7,0.7c-0.8,0.5-1.4,1.2-1.9,2c-0.5,0.9-0.7,1.8-0.7,2.9
		c0,1.1,0.2,2,0.7,2.9c0.5,0.9,1.1,1.5,1.9,2c0.8,0.5,1.7,0.8,2.6,0.8c0.6,0,1.1-0.1,1.7-0.3c0.5-0.2,1.1-0.5,1.6-0.9
		c0.5-0.4,1-0.8,1.4-1.4l1.8,2.2c-0.7,0.9-1.6,1.7-2.9,2.3C-564.3,1969.8-565.6,1970.1-566.9,1970.1z"/>
	<linearGradient id="SVGID_18_" gradientUnits="userSpaceOnUse" x1="-925.9961" y1="1550.2576" x2="-384.5265" y2="2093.8018">
		<stop  offset="0" style="stop-color:#3BC5F3"/>
		<stop  offset="1" style="stop-color:#3751A2"/>
	</linearGradient>
	<path class="st16" d="M-519.2,1970.1c-1.4,0-2.6-0.4-3.7-1.1c-1.1-0.8-2-1.8-2.7-3.1c-0.7-1.3-1-2.8-1-4.4c0-1.7,0.3-3.1,1-4.4
		c0.7-1.3,1.6-2.3,2.8-3c1.2-0.7,2.5-1.1,3.9-1.1c0.9,0,1.6,0.1,2.4,0.4c0.7,0.3,1.3,0.6,1.9,1.1c0.5,0.5,1,1,1.3,1.6
		c0.3,0.6,0.6,1.2,0.6,1.9l-0.7-0.3v-4.3h3.3v16.5h-3.3v-3.9l0.8-0.2c-0.1,0.6-0.4,1.1-0.8,1.7c-0.4,0.5-0.9,1-1.5,1.4
		c-0.6,0.4-1.3,0.8-2,1C-517.7,1970-518.4,1970.1-519.2,1970.1z M-518.4,1967.1c1,0,1.9-0.2,2.6-0.7c0.8-0.5,1.3-1.1,1.8-2
		c0.4-0.9,0.6-1.8,0.6-2.9c0-1.1-0.2-2-0.6-2.9c-0.4-0.8-1-1.5-1.8-2c-0.8-0.5-1.6-0.7-2.6-0.7c-1,0-1.8,0.2-2.6,0.7
		c-0.7,0.5-1.3,1.1-1.8,2c-0.4,0.8-0.6,1.8-0.6,2.9c0,1.1,0.2,2.1,0.6,2.9s1,1.5,1.8,2C-520.2,1966.9-519.3,1967.1-518.4,1967.1z"/>
	<linearGradient id="SVGID_19_" gradientUnits="userSpaceOnUse" x1="-902.3022" y1="1526.6541" x2="-360.8326" y2="2070.1982">
		<stop  offset="0" style="stop-color:#3BC5F3"/>
		<stop  offset="1" style="stop-color:#3751A2"/>
	</linearGradient>
	<path class="st17" d="M-474.1,1969.8v-16.5h3.3v5.2l-0.3-1.3c0.2-0.8,0.6-1.5,1.2-2.2c0.6-0.6,1.2-1.2,1.9-1.5
		c0.7-0.4,1.5-0.6,2.3-0.6c0.4,0,0.7,0,1,0.1s0.6,0.1,0.8,0.2l-0.9,3.5c-0.3-0.1-0.5-0.2-0.8-0.3c-0.3-0.1-0.6-0.1-0.9-0.1
		c-0.6,0-1.1,0.1-1.6,0.3c-0.5,0.2-1,0.5-1.4,0.9c-0.4,0.4-0.7,0.8-0.9,1.4c-0.2,0.5-0.3,1.1-0.3,1.7v9.1H-474.1z"/>
	<linearGradient id="SVGID_20_" gradientUnits="userSpaceOnUse" x1="-859.3588" y1="1483.8745" x2="-317.8891" y2="2027.4187">
		<stop  offset="0" style="stop-color:#3BC5F3"/>
		<stop  offset="1" style="stop-color:#3751A2"/>
	</linearGradient>
	<path class="st18" d="M-380.9,1970.1c-0.7,0-1.4-0.1-2.1-0.3c-0.7-0.2-1.3-0.5-1.9-0.9c-0.6-0.4-1.1-0.8-1.4-1.3
		c-0.4-0.5-0.6-1-0.8-1.4l0.8-0.4v4h-3.2v-23.2h3.2v10.6l-0.5-0.3c0.1-0.5,0.3-1,0.7-1.4c0.4-0.5,0.8-0.9,1.4-1.2
		c0.6-0.4,1.2-0.7,1.8-0.9c0.6-0.2,1.3-0.3,2-0.3c1.5,0,2.8,0.4,4,1.1c1.2,0.7,2.1,1.7,2.7,3c0.7,1.3,1,2.8,1,4.4
		c0,1.7-0.3,3.1-1,4.4c-0.7,1.3-1.6,2.3-2.7,3.1C-378.1,1969.8-379.4,1970.1-380.9,1970.1z M-381.4,1967.2c1,0,1.8-0.2,2.6-0.7
		c0.8-0.5,1.4-1.2,1.8-2c0.4-0.9,0.7-1.8,0.7-2.9c0-1.1-0.2-2-0.6-2.9c-0.4-0.8-1-1.5-1.8-2c-0.8-0.5-1.6-0.7-2.6-0.7
		s-1.9,0.2-2.6,0.7c-0.8,0.5-1.4,1.2-1.8,2c-0.4,0.9-0.7,1.8-0.7,2.9c0,1.1,0.2,2.1,0.7,2.9c0.4,0.9,1,1.5,1.8,2
		C-383.3,1966.9-382.4,1967.2-381.4,1967.2z"/>
	<linearGradient id="SVGID_21_" gradientUnits="userSpaceOnUse" x1="-832.2258" y1="1456.8451" x2="-290.7562" y2="2000.3894">
		<stop  offset="0" style="stop-color:#3BC5F3"/>
		<stop  offset="1" style="stop-color:#3751A2"/>
	</linearGradient>
	<path class="st19" d="M-332.4,1970.1c-1.2,0-2.2-0.3-3.1-0.8c-0.9-0.5-1.5-1.3-2-2.3c-0.5-1-0.7-2.2-0.7-3.5v-10.2h3.2v9.3
		c0,1,0.2,1.8,0.5,2.5c0.3,0.7,0.7,1.2,1.3,1.6c0.6,0.4,1.3,0.6,2.1,0.6c0.6,0,1.2-0.1,1.7-0.3c0.5-0.2,0.9-0.5,1.3-0.8
		c0.4-0.4,0.7-0.8,0.9-1.3s0.3-1,0.3-1.6v-10h3.2v16.5h-3.2v-3.5l0.6-0.4c-0.3,0.8-0.7,1.5-1.3,2.1c-0.6,0.6-1.3,1.1-2.1,1.5
		C-330.6,1970-331.5,1970.1-332.4,1970.1z"/>
	<linearGradient id="SVGID_22_" gradientUnits="userSpaceOnUse" x1="-808.5847" y1="1433.2942" x2="-267.115" y2="1976.8384">
		<stop  offset="0" style="stop-color:#3BC5F3"/>
		<stop  offset="1" style="stop-color:#3751A2"/>
	</linearGradient>
	<path class="st20" d="M-282.1,1970.1c-1.4,0-2.6-0.2-3.8-0.7c-1.1-0.5-2-1.2-2.8-2.1l2.2-1.9c0.6,0.7,1.3,1.3,2.1,1.6
		c0.7,0.3,1.6,0.5,2.5,0.5c0.4,0,0.7,0,1.1-0.1c0.3-0.1,0.6-0.2,0.9-0.4c0.2-0.2,0.4-0.4,0.6-0.7c0.1-0.3,0.2-0.6,0.2-0.9
		c0-0.5-0.2-1-0.6-1.3c-0.2-0.1-0.5-0.3-1-0.5c-0.5-0.2-1-0.4-1.7-0.6c-1.2-0.3-2.2-0.7-3-1.1c-0.8-0.4-1.4-0.9-1.8-1.4
		c-0.3-0.4-0.5-0.8-0.7-1.3c-0.1-0.5-0.2-1-0.2-1.6c0-0.7,0.2-1.3,0.5-1.9c0.3-0.6,0.7-1.1,1.3-1.5c0.5-0.4,1.2-0.8,1.9-1
		c0.7-0.2,1.5-0.3,2.3-0.3c0.8,0,1.5,0.1,2.3,0.3c0.8,0.2,1.5,0.5,2.1,0.9c0.6,0.4,1.2,0.9,1.6,1.4l-1.9,2c-0.4-0.4-0.8-0.8-1.3-1.1
		s-1-0.5-1.4-0.7c-0.5-0.2-0.9-0.3-1.3-0.3c-0.4,0-0.8,0-1.2,0.1c-0.4,0.1-0.7,0.2-0.9,0.4s-0.4,0.4-0.6,0.6
		c-0.1,0.3-0.2,0.5-0.2,0.9c0,0.3,0.1,0.5,0.2,0.8c0.1,0.2,0.3,0.4,0.5,0.6c0.2,0.2,0.6,0.3,1,0.5c0.5,0.2,1,0.4,1.8,0.5
		c1,0.3,1.9,0.6,2.6,0.9c0.7,0.3,1.2,0.7,1.6,1.1c0.4,0.4,0.7,0.9,0.9,1.4c0.2,0.5,0.3,1.1,0.3,1.8c0,0.9-0.3,1.8-0.8,2.5
		c-0.5,0.7-1.3,1.3-2.2,1.7C-280,1969.9-281,1970.1-282.1,1970.1z"/>
	<linearGradient id="SVGID_23_" gradientUnits="userSpaceOnUse" x1="-762.4639" y1="1387.3495" x2="-220.9943" y2="1930.8938">
		<stop  offset="0" style="stop-color:#3BC5F3"/>
		<stop  offset="1" style="stop-color:#3751A2"/>
	</linearGradient>
	<path class="st21" d="M-195.3,1969.8l-7-16.5h3.5l5,12.4l-0.6,0.3l5.4-12.7h3.3l-7.3,16.5H-195.3z"/>
	<linearGradient id="SVGID_24_" gradientUnits="userSpaceOnUse" x1="-738.2903" y1="1363.2682" x2="-196.8207" y2="1906.8124">
		<stop  offset="0" style="stop-color:#3BC5F3"/>
		<stop  offset="1" style="stop-color:#3751A2"/>
	</linearGradient>
	<path class="st22" d="M-145.3,1970.1c-1.4,0-2.6-0.4-3.7-1.1s-2-1.8-2.7-3.1c-0.7-1.3-1-2.8-1-4.4c0-1.7,0.3-3.1,1-4.4
		c0.7-1.3,1.6-2.3,2.8-3c1.2-0.7,2.5-1.1,3.9-1.1c0.9,0,1.6,0.1,2.4,0.4c0.7,0.3,1.3,0.6,1.9,1.1c0.5,0.5,1,1,1.3,1.6
		c0.3,0.6,0.6,1.2,0.6,1.9l-0.7-0.3v-4.3h3.3v16.5h-3.3v-3.9l0.8-0.2c-0.1,0.6-0.4,1.1-0.8,1.7c-0.4,0.5-0.9,1-1.5,1.4
		c-0.6,0.4-1.3,0.8-2,1C-143.7,1970-144.5,1970.1-145.3,1970.1z M-144.4,1967.1c1,0,1.9-0.2,2.6-0.7c0.8-0.5,1.3-1.1,1.8-2
		c0.4-0.9,0.6-1.8,0.6-2.9c0-1.1-0.2-2-0.6-2.9c-0.4-0.8-1-1.5-1.8-2c-0.8-0.5-1.6-0.7-2.6-0.7c-1,0-1.8,0.2-2.6,0.7
		c-0.7,0.5-1.3,1.1-1.8,2c-0.4,0.8-0.6,1.8-0.6,2.9c0,1.1,0.2,2.1,0.6,2.9c0.4,0.9,1,1.5,1.8,2
		C-146.2,1966.9-145.4,1967.1-144.4,1967.1z"/>
	<linearGradient id="SVGID_25_" gradientUnits="userSpaceOnUse" x1="-714.2267" y1="1339.2964" x2="-172.7571" y2="1882.8407">
		<stop  offset="0" style="stop-color:#3BC5F3"/>
		<stop  offset="1" style="stop-color:#3751A2"/>
	</linearGradient>
	<path class="st23" d="M-100.2,1969.8v-16.5h3.2v3.4l-0.6,0.4c0.2-0.7,0.6-1.4,1.2-2s1.3-1.1,2.2-1.5c0.8-0.4,1.7-0.6,2.6-0.6
		c1.3,0,2.3,0.2,3.2,0.7c0.8,0.5,1.5,1.2,1.9,2.3c0.4,1,0.6,2.3,0.6,3.8v10.1h-3.2v-9.9c0-0.9-0.1-1.7-0.4-2.3
		c-0.3-0.6-0.6-1.1-1.2-1.4c-0.5-0.3-1.2-0.4-2-0.4c-0.6,0-1.2,0.1-1.7,0.3c-0.5,0.2-1,0.5-1.4,0.8c-0.4,0.4-0.7,0.8-0.9,1.2
		c-0.2,0.5-0.3,1-0.3,1.5v10h-1.6c-0.3,0-0.5,0-0.8,0C-99.6,1969.8-99.9,1969.8-100.2,1969.8z"/>
</g>
<g>
	<linearGradient id="SVGID_26_" gradientUnits="userSpaceOnUse" x1="32.9575" y1="133.5778" x2="107.9155" y2="133.5778">
		<stop  offset="0" style="stop-color:#3BC5F3"/>
		<stop  offset="1" style="stop-color:#3751A2"/>
	</linearGradient>
	<path class="st24" d="M107.4,109.8c-6.3,14.5-21.7,25.1-37.6,25.1c-16.5,0-29.8-9.7-36.3-23.5c-0.2,0-0.3,0-0.5,0
		c3.5,6.5,7.8,13.1,13,19.9c5.9,7.7,11.7,14.1,15.6,18.1c4.2,4.3,7,6.8,7.1,6.9l1.3,1.1l1.3-1.1c0.1-0.1,2.9-2.6,7.1-6.9
		c3.9-4,9.7-10.4,15.6-18.1c5.6-7.4,10.3-14.6,13.9-21.6C107.7,109.7,107.6,109.8,107.4,109.8z"/>
	<linearGradient id="SVGID_27_" gradientUnits="userSpaceOnUse" x1="29.4555" y1="94.9126" x2="110.5413" y2="94.9126">
		<stop  offset="0" style="stop-color:#3BC5F3"/>
		<stop  offset="1" style="stop-color:#3751A2"/>
	</linearGradient>
	<path class="st25" d="M69.9,54.5c22.5-0.1,40.5,17.8,40.6,40.3c0.1,22.2-17.9,40.4-40.1,40.5c-22.8,0.1-40.9-17.6-41-40.3
		C29.3,72.7,47.4,54.6,69.9,54.5z M69.4,60.7c-1.5,0.2-3.7,0.4-5.8,0.8c-11.2,2.2-19.1,8.7-24.2,18.7c-1.5,2.9,0,6.2,2.5,5.8
		c3.9-0.6,8-1.1,11.7-2.4c8-3,16-3.8,24.3-2.3c6,1.1,12,2.8,18,4c1.4,0.3,3.9,0.3,4.2-0.4c0.7-1.5,1-3.8,0.3-5.2
		C93.9,67.7,83.8,61.4,69.4,60.7z M43.1,98.8c-6.7-0.1-7.3,0.6-5.8,5.6c2.6,8.6,7.5,15.6,15.5,20c1.8,1,4.7,1.6,6.3,0.8
		c1.3-0.6,2.1-3.9,1.7-5.6c-1-4.2-2.8-8.2-4.5-12.2C53.6,100.9,48.3,98.5,43.1,98.8z M78.7,121c-0.1,3.9,3,6.2,6.4,4.6
		c9.7-4.9,15.7-12.8,18-23.4c0.2-0.9-1-3.1-1.4-3.1c-4.7,0.7-10.5,0.1-13.7,2.8C82.4,106.5,79.6,113.6,78.7,121z M70.1,89.4
		c-3.4-0.1-6.4,2.7-6.6,6.1c-0.2,3.6,2.8,6.7,6.4,6.8c3.3,0.1,6.5-2.8,6.7-6.1C76.7,92.7,73.7,89.5,70.1,89.4z"/>
</g>
<g>
	<linearGradient id="SVGID_28_" gradientUnits="userSpaceOnUse" x1="29.7163" y1="32.4015" x2="109.1101" y2="32.4015">
		<stop  offset="0" style="stop-color:#3BC5F3"/>
		<stop  offset="1" style="stop-color:#3751A2"/>
	</linearGradient>
	<path class="st26" d="M69.4,23.4c2.3,0.1,4.6,0.2,6.9,0.4c2.2,0.2,4.4,0.6,6.6,1.1c2,0.4,3.9,0.9,5.8,1.5c2.1,0.7,4.2,1.5,6.2,2.3
		c2.8,1.2,5.4,2.5,7.8,4.2c1.8,1.3,3.6,2.6,5.4,3.9c1.8,1.4,1.1,3.7-1.1,4.4c-1.2,0.4-2.5,0.2-3.5-0.6c-2.6-2.2-5.5-4.1-8.7-5.7
		C92.9,34,91,33.2,89,32.4c-1.3-0.5-2.6-1-3.9-1.3c-1.5-0.4-2.9-0.7-4.4-1c-1.8-0.3-3.5-0.7-5.3-0.9c-3-0.3-6-0.4-9-0.2
		c-2.1,0.1-4.2,0.4-6.2,0.7c-2,0.3-3.9,0.8-5.8,1.3c-1.9,0.5-3.7,1.1-5.6,1.8c-3.6,1.4-6.9,3.2-10,5.3c-1.1,0.7-2.1,1.6-3.1,2.4
		c-1.7,1.4-4.3,1.2-5.4-0.4c-0.7-1-0.7-2.3,0.4-3.1c2-1.5,4-3.1,6.1-4.4c2-1.3,4.3-2.4,6.5-3.4c2.1-1,4.3-1.7,6.5-2.5
		c1.2-0.4,2.4-0.8,3.6-1.1c1-0.3,2.1-0.5,3.2-0.7c2-0.3,4-0.7,6-0.9C64.8,23.6,67.1,23.5,69.4,23.4z"/>
</g>
<g>
	<linearGradient id="SVGID_29_" gradientUnits="userSpaceOnUse" x1="38.9307" y1="43.1721" x2="100.753" y2="43.1721">
		<stop  offset="0" style="stop-color:#3BC5F3"/>
		<stop  offset="1" style="stop-color:#3751A2"/>
	</linearGradient>
	<path class="st27" d="M69.9,35.2c1.8,0.1,3.6,0.2,5.4,0.4c1.7,0.2,3.4,0.6,5.1,1c1.5,0.4,3.1,0.8,4.5,1.3c1.6,0.6,3.3,1.3,4.8,2.1
		c2.1,1,4.2,2.3,6.1,3.7c1.4,1.1,2.8,2.3,4.2,3.5c1.4,1.2,0.8,3.3-0.9,3.9c-1,0.4-1.9,0.2-2.7-0.5c-2.1-1.9-4.3-3.7-6.8-5.1
		c-1.5-0.8-3-1.5-4.5-2.2c-1-0.5-2-0.9-3.1-1.2c-1.1-0.4-2.3-0.6-3.5-0.9c-1.4-0.3-2.8-0.6-4.2-0.8c-2.3-0.3-4.7-0.4-7-0.2
		c-1.6,0.1-3.3,0.3-4.9,0.6c-1.5,0.3-3,0.7-4.5,1.2c-1.5,0.5-2.9,1-4.3,1.6c-2.8,1.2-5.4,2.8-7.8,4.7c-0.8,0.7-1.7,1.4-2.4,2.1
		c-1.3,1.2-3.4,1-4.2-0.4c-0.5-0.9-0.5-2,0.3-2.8c1.5-1.4,3.1-2.7,4.8-3.9c1.6-1.1,3.3-2.1,5.1-3.1c1.6-0.8,3.4-1.5,5.1-2.2
		c0.9-0.4,1.8-0.7,2.8-1c0.8-0.2,1.6-0.5,2.5-0.6c1.6-0.3,3.1-0.6,4.7-0.8C66.2,35.3,68,35.3,69.9,35.2z"/>
</g>
</svg>
