<?xml version="1.0" encoding="utf-8"?>
<!-- Generator: Adobe Illustrator 25.2.0, SVG Export Plug-In . SVG Version: 6.00 Build 0)  -->
<svg version="1.1" id="Layer_1" xmlns="http://www.w3.org/2000/svg" xmlns:xlink="http://www.w3.org/1999/xlink" x="0px" y="0px"
	 viewBox="0 0 512 512" style="enable-background:new 0 0 512 512;" xml:space="preserve">
<style type="text/css">
	.st0{fill-rule:evenodd;clip-rule:evenodd;fill:#33585C;}
	.st1{fill-rule:evenodd;clip-rule:evenodd;fill:#901D77;}
	.st2{fill:#8F1E78;}
	.st3{fill:#31585C;}
	.st4{fill:#33585C;}
</style>
<g>
	<path class="st0" d="M307.7,3.3c0,0-91.5,74.6-108.5,186.7c0,0-30.3,146.1,80.6,65.5c0,0-50.9,65.5-92.1,49.7
		c0,0-28.5-9.5-8.5-104.2C179.2,201,216.1,63.9,307.7,3.3z"/>
	<path class="st1" d="M223.4,185.3c0,0,101.6-9.6,107.6-52.8c0.2-1.6,0.3-3.2,0.3-4.8c-1.2-47.3-68.5-59.4-68.5-59.4
		s-50.9-12.1-106.1-2.7c0,0,116.2-29.6,178.8,16.5s-28.3,89.7-28.3,89.7S274.9,188.3,223.4,185.3z"/>
</g>
<g>
	<path class="st2" d="M150.1,351.8c-0.5,5.2-2.1,9.8-5,13.8c-2.9,3.9-6.5,7-11,9.1c-8.5,4.3-18.4,6.4-29.6,6.4c-2,0-3.8-0.1-5.5-0.4
		c-6.6,16.7-9.9,28-9.9,33.8c0,1.2,0.2,2.1,0.5,2.6H74.2c2.2-9.6,6.9-23,14.1-40.1c9.5-22.7,15.7-35.7,18.5-38.8
		c-6.8,0.2-13.6,1.5-20.6,4.1s-11,5.7-12.1,9.2c-0.1,0.2-0.2,0.4-0.5,0.4c-0.7,0-1.1-0.5-1.1-1.6c0-0.2,0.1-0.6,0.2-1.2
		c1.5-4.4,3.7-7.8,6.6-10.1c2.9-2.4,5.7-3.9,8.4-4.4c2.7-0.6,6.1-0.8,10.2-0.8h30.2c7.2,0,12.7,1.6,16.4,4.7s5.5,7,5.5,11.7v1.6
		H150.1z M118.3,375.9c5.7-2,10.4-5,14-9.1c3.7-4.1,5.5-9,5.5-14.6c0-9.1-5.5-14-16.5-14.7c-5.2,6.5-11.6,18.4-19.1,35.6l-2.5,5.8
		h1.4C106.9,378.8,112.6,377.9,118.3,375.9z"/>
	<path class="st2" d="M181.2,369.4l6,0.1h1.2c-2.6,2.1-5.8,7.6-9.7,16.3c-3.8,8.7-5.7,15.1-5.7,19c0,2.1,0.7,3.1,2.1,3.1
		c4.6,0,10.5-6.8,17.7-20.4c0.3-0.6,0.6-0.8,0.8-0.8c0.5,0,0.7,0.7,0.7,2.2s-0.4,2.9-1.2,4.2c-9.8,16.5-18,24.7-24.6,24.7
		c-4.3,0-6.4-3.3-6.4-9.9c0-4.9,0.8-9.8,2.5-14.6c-9.1,16.1-17.5,24.1-25.2,24.1c-5.3,0-8-3.7-8-11c0-5.6,1.2-11.2,3.6-16.9
		c2.4-5.7,5.9-10.6,10.4-14.6s9.5-6,14.9-6c2.5,0,4.9,0.6,7.2,1.7c2.2,1.2,3.7,3,4.4,5.5c0.9-1.8,2.2-3.4,4.1-4.8
		C177.9,370.1,179.6,369.4,181.2,369.4z M171.3,377.3c-0.8-2.5-2.7-3.8-5.6-3.8c-5.2,0-10.3,3.6-15.3,10.9
		c-4.9,7.3-7.4,13.8-7.4,19.5c0,2.5,1,3.7,2.9,3.7c2.1,0,4.5-1.3,7.3-3.9s5.3-5.6,7.5-9.1C165.6,386.8,169.1,381,171.3,377.3z"/>
	<path class="st2" d="M237,370.6h4.9c-2.5,1.5-5,5.2-7.5,11.2c-2.1,5-3.8,9.6-5.2,13.7s-2.3,6.6-2.6,7.5s-1.1,3-2.2,6.4
		c-1.2,3.4-2.1,6-2.8,7.8c-2,5.6-4.3,10-6.9,13.2c-2.6,3.3-5.9,5.9-9.8,7.8c-3.9,1.9-7.8,2.9-11.8,2.9s-7.4-0.8-10.2-2.3
		c-2.8-1.6-4.2-4-4.2-7.3c0-1.8,0.5-3.3,1.6-4.7c1.1-1.4,2.3-2.1,3.7-2.1s2.6,0.3,3.5,1c1,0.6,1.6,1.4,2,2.1c-1.4,0.5-2.1,2.1-2.1,5
		c0,1.5,0.5,2.7,1.6,3.6s2.4,1.4,4.1,1.4c6.4,0,11.9-5.8,16.2-17.3l6.8-18.1c-3.7,4.7-7,8.2-9.7,10.6c-2.7,2.3-4.9,3.8-6.4,4.2
		c-1.6,0.5-3.4,0.7-5.5,0.7s-3.8-0.9-5.1-2.6s-1.9-4.2-1.8-7.5c0-3.3,1-8,2.9-14.1s3.9-11,6.2-14.6s4.6-5.9,7-6.9s5.7-1.6,10-1.6
		c0.3,0,0.5,0.2,0.5,0.5s-0.2,0.7-0.7,1.2c-3.3,2.9-6.6,8-10,15.4s-5.1,13.6-5.1,18.7c0,2.7,0.8,4.1,2.3,4.1c2.9,0,6.5-2.9,11-8.6
		s7.9-11.5,10.3-17.2c0.3-0.8,0.8-1.9,1.4-3.5c0.6-1.5,1-2.5,1.3-3.1c0.2-0.6,0.6-1.3,1.1-2.3s1-1.7,1.4-2c0.4-0.4,0.9-0.8,1.6-1.4
		c0.7-0.6,1.4-0.9,2.1-1.1C232.9,370.9,235,370.6,237,370.6z"/>
	<path class="st3" d="M314.5,351.8c-0.5,5.2-2.1,9.8-5,13.8s-6.5,7-11,9.1c-8.5,4.3-18.4,6.4-29.6,6.4c-2,0-3.8-0.1-5.5-0.4
		c-6.6,16.7-9.9,28-9.9,33.8c0,1.2,0.2,2.1,0.5,2.6h-15.4c2.2-9.6,6.9-23,14.1-40.1c9.5-22.7,15.7-35.7,18.5-38.8
		c-6.8,0.2-13.6,1.5-20.6,4.1s-11,5.7-12.1,9.2c-0.1,0.2-0.2,0.4-0.5,0.4c-0.7,0-1.1-0.5-1.1-1.6c0-0.2,0.1-0.6,0.2-1.2
		c1.5-4.4,3.7-7.8,6.6-10.1c2.9-2.4,5.7-3.9,8.4-4.4c2.7-0.6,6.1-0.8,10.2-0.8h30.2c7.2,0,12.7,1.6,16.4,4.7c3.7,3.1,5.5,7,5.5,11.7
		v1.6H314.5z M282.7,375.9c5.7-2,10.4-5,14-9.1c3.7-4.1,5.5-9,5.5-14.6c0-9.1-5.5-14-16.5-14.7c-5.2,6.5-11.6,18.4-19.1,35.6
		l-2.5,5.8h1.4C271.3,378.8,277,377.9,282.7,375.9z"/>
	<path class="st3" d="M338.3,369.2l6.1,0.1h1.2c-1.2,0.9-2.9,3.5-5.1,7.8s-3.8,7.5-4.9,9.7s-2.3,5.1-3.6,8.8c-1.3,3.7-2,6.7-2,9
		s0.8,3.5,2.4,3.5c1-0.1,2.5-0.8,4.4-2.2c1.9-1.4,3.4-2.9,4.7-4.4c1.2-1.6,2.6-3.5,4.1-6c1.5-2.4,2.7-4.5,3.8-6.3
		c1.1-1.8,1.7-2.7,1.8-2.7c0.6,0,0.8,0.7,0.8,2.2s-0.4,2.9-1.2,4.2c-3.4,5.6-6.2,10-8.5,13c-2.2,3-4.9,5.8-8.1,8.3
		c-3.1,2.5-6,3.8-8.5,3.8c-4.5,0-6.8-3.3-6.8-10c0-4.5,0.9-9.7,2.6-15.4c1.7-5.7,4.3-11.3,7.8-16.6c-2.8,2.2-5.6,3.3-8.4,3.3
		c-0.9,0-1.8-0.2-2.7-0.6c-5.6,11.1-8.7,16.7-9.1,16.7s-0.7-0.7-0.7-2s0.5-3.1,1.5-5.5c1-2.3,2.1-4.6,3.2-6.7
		c1.2-2.1,1.8-3.3,1.8-3.6c-2.9-1.4-4.3-3.7-4.3-6.9c0-1.6,0.5-3,1.5-4.3s2.4-1.9,4.1-1.9s3.2,0.6,4.3,1.7c-0.2,0.5-0.2,1.2-0.2,2.1
		c0,2.1,0.8,3.8,2.3,5.1c1.6,1.2,3.4,1.8,5.7,1.8c0.6,0,1.1,0,1.4-0.1C332.6,371.2,335.5,369.2,338.3,369.2z"/>
	<path class="st3" d="M394.2,386.1c0.5,0,0.7,0.8,0.7,2.3s-0.6,3.4-1.9,5.5s-2.5,4.2-3.8,6.1c-1.2,1.9-2.9,4.1-5,6.7
		c-2.1,2.5-4.1,4.6-6.1,6.1c-5,3.7-10,5.5-15.1,5.5s-9.1-1.3-12.2-3.9s-4.7-6.5-4.7-11.9c0-8.1,3-15.6,8.9-22.5
		c6-6.9,12.9-10.4,20.9-10.4c3.6,0,6.4,0.9,8.6,2.8c2.1,1.9,3.2,4.1,3.2,6.7c0,4.5-2.1,8-6.3,10.7c-4.2,2.7-9.2,4.1-14.9,4.1
		c-3.3,0-5.8-0.4-7.4-1.3c-1.5,4.1-2.3,7.6-2.3,10.7c0,6.7,2.8,10,8.5,10c3.3,0,6.8-1.3,10.3-3.9s6.6-5.5,9.1-8.7s5.3-7.9,8.5-13.9
		C393.7,386.4,393.9,386.1,394.2,386.1z M381.5,376.7c0-2.3-1.1-3.5-3.3-3.5c-3.1,0-6.6,1.9-10.4,5.7c-3.8,3.8-5.7,6.9-5.7,9.3
		c0,1.6,1.5,2.4,4.5,2.4s6.2-1.5,9.5-4.4C379.4,383.3,381.2,380.1,381.5,376.7z"/>
</g>
<polygon class="st4" points="36.5,455.2 443.2,455.2 443.2,456.7 36.5,456.7 "/>
<g>
	<path class="st2" d="M156.4,477.7c2.1,2,3.1,4.9,3.1,8.7s-1,6.7-3.1,8.7c-2.1,2-5,3-8.8,3h-6.9v11h-7v-34.3h14
		C151.4,474.7,154.3,475.7,156.4,477.7z M152.5,486.4c0-3.8-1.7-5.7-5.2-5.7h-6.6V492h6.6c1.7,0,3-0.4,3.9-1.3
		C152,489.8,152.5,488.4,152.5,486.4z"/>
	<path class="st2" d="M199,509h-7.3l-2-5.9h-12.1l-2,5.9h-7.3l11.5-31.4c0.5-1.1,1.1-1.8,1.7-2.3c0.6-0.4,1.4-0.6,2.3-0.6
		s1.6,0.2,2.2,0.6c0.6,0.4,1.1,1.2,1.5,2.3L199,509z M188,497.4l-4.3-13.6l-4.5,13.6H188z"/>
	<path class="st2" d="M237.5,509h-8.1l-7-12.7h-5.1V509h-7v-26.9c0-2.6,0.6-4.4,1.9-5.6c1.2-1.2,3.3-1.8,6.3-1.8h6
		c3.6,0,6.4,1,8.5,3.1c2.1,2.1,3.2,4.7,3.2,7.9c0,2.3-0.6,4.3-1.9,6c-1.3,1.7-2.8,2.8-4.7,3.5L237.5,509z M227.5,489.2
		c1-1,1.4-2.2,1.4-3.7s-0.5-2.6-1.4-3.5c-0.9-0.9-2.2-1.3-3.7-1.3h-3.5c-2.1,0-3.1,1-3.1,3v7h6.6
		C225.3,490.7,226.6,490.2,227.5,489.2z"/>
	<path class="st2" d="M265.8,490.9l12.4,18.1H270l-8.5-13l-4.9,6.3v6.7h-7v-34.3h7v19.2l13.6-19.2h7.1L265.8,490.9z"/>
	<path class="st2" d="M296.4,509h-7v-34.3h7V509z"/>
	<path class="st2" d="M339.2,474.7v30.8c0,1.1-0.3,2-1,2.7c-0.7,0.8-1.5,1.1-2.4,1.1c-2.3,0-4.2-1.3-5.7-3.9L317.6,487v22h-7v-34.3
		h6.8l14.8,22.4v-22.4H339.2z"/>
	<path class="st2" d="M350.5,492.9v-4.2c0-4.5,1.2-7.9,3.7-10.4c2.5-2.5,5.9-3.8,10.2-3.8c4.4,0,7.8,1.3,10.5,3.8
		c1.9,1.8,2.8,4.4,2.8,7.9h-6.6c0-3.8-2.1-5.7-6.4-5.7c-1.3,0-2.4,0.2-3.3,0.7c-0.9,0.5-1.6,1-2,1.6c-0.4,0.6-0.8,1.5-1,2.7
		c-0.2,1.2-0.4,2.2-0.4,3c0,0.8-0.1,1.9-0.1,3.2s0,2.3,0,2.7c0,0.5,0.1,1.2,0.2,2.3c0.1,1,0.2,1.8,0.4,2.2c0.2,0.4,0.5,1,0.8,1.7
		c0.4,0.7,0.8,1.2,1.3,1.5c1.4,0.8,3,1.3,4.7,1.3c2.9,0,5-1.2,6.2-3.6v-2.3h-4.4v-5.6h10.4v10.3c-1,2.3-2.7,4.1-5,5.3
		s-4.8,1.8-7.7,1.8c-5.1,0-8.8-1.4-11.1-4.1C351.6,502.5,350.5,498.4,350.5,492.9z"/>
</g>
</svg>
