<?xml version="1.0" encoding="utf-8"?>
<!-- Generator: Adobe Illustrator 25.2.0, SVG Export Plug-In . SVG Version: 6.00 Build 0)  -->
<svg version="1.1" id="Layer_1" xmlns="http://www.w3.org/2000/svg" xmlns:xlink="http://www.w3.org/1999/xlink" x="0px" y="0px"
	 viewBox="0 0 1366 768" style="enable-background:new 0 0 1366 768;" xml:space="preserve">
<style type="text/css">
	.Drop_x0020_Shadow{fill:none;}
	.Outer_x0020_Glow_x0020_5_x0020_pt{fill:none;}
	.Blue_x0020_Neon{fill:none;stroke:#8AACDA;stroke-width:7;stroke-linecap:round;stroke-linejoin:round;}
	.Chrome_x0020_Highlight{fill:url(#SVGID_1_);stroke:#FFFFFF;stroke-width:0.3629;stroke-miterlimit:1;}
	.Jive_GS{fill:#FFDD00;}
	.Alyssa_GS{fill:#A6D0E4;}
	.st0{fill:url(#SVGID_2_);}
	.st1{fill:url(#SVGID_3_);}
	.st2{fill:url(#SVGID_4_);}
	.st3{fill:url(#SVGID_5_);}
	.st4{fill:url(#SVGID_6_);}
	.st5{fill:url(#SVGID_7_);}
	.st6{fill:url(#SVGID_8_);}
	.st7{fill:url(#SVGID_9_);}
	.st8{fill:url(#SVGID_10_);}
	.st9{fill:url(#SVGID_11_);}
	.st10{fill:url(#SVGID_12_);}
	.st11{fill:url(#SVGID_13_);}
	.st12{fill:url(#SVGID_14_);}
	.st13{fill:url(#SVGID_15_);}
	.st14{fill:url(#SVGID_16_);}
	.st15{fill:url(#SVGID_17_);}
	.st16{fill:url(#SVGID_18_);}
	.st17{fill:url(#SVGID_19_);}
	.st18{fill:url(#SVGID_20_);}
	.st19{fill:url(#SVGID_21_);}
	.st20{fill:url(#SVGID_22_);}
	.st21{fill:url(#SVGID_23_);}
	.st22{fill:url(#SVGID_24_);}
	.st23{fill:url(#SVGID_25_);}
</style>
<linearGradient id="SVGID_1_" gradientUnits="userSpaceOnUse" x1="0" y1="0" x2="6.123234e-17" y2="-1">
	<stop  offset="0" style="stop-color:#656565"/>
	<stop  offset="0.618" style="stop-color:#1B1B1B"/>
	<stop  offset="0.6292" style="stop-color:#545454"/>
	<stop  offset="0.9831" style="stop-color:#3E3E3E"/>
</linearGradient>
<g>
	<linearGradient id="SVGID_2_" gradientUnits="userSpaceOnUse" x1="96.3653" y1="154.5081" x2="637.835" y2="698.0524">
		<stop  offset="0" style="stop-color:#3BC5F3"/>
		<stop  offset="1" style="stop-color:#3751A2"/>
	</linearGradient>
	<path class="st0" d="M304.2,424.7h-16.9V320.8h37.9c4.6,0,8.9,0.7,13,2c4.1,1.3,7.6,3.6,10.6,6.6c3,3.1,5.4,7.1,7.2,12
		c1.8,4.9,2.7,11,2.7,18.3c0,7.3-0.9,13.4-2.7,18.3c-1.8,4.9-4.2,8.9-7.2,12c-3,3.1-6.6,5.3-10.6,6.6c-4.1,1.3-8.4,2-13,2h-21V424.7
		z M323,384.1c2.6,0,5-0.4,7.3-1.2c2.3-0.8,4.3-2.1,6-4c1.7-1.9,3-4.4,4-7.5s1.5-7,1.5-11.7s-0.5-8.6-1.5-11.7c-1-3.1-2.3-5.6-4-7.5
		c-1.7-1.9-3.7-3.2-6-4c-2.3-0.8-4.7-1.2-7.3-1.2h-18.8v48.6H323z"/>
	<linearGradient id="SVGID_3_" gradientUnits="userSpaceOnUse" x1="145.3023" y1="105.758" x2="686.7719" y2="649.3022">
		<stop  offset="0" style="stop-color:#3BC5F3"/>
		<stop  offset="1" style="stop-color:#3751A2"/>
	</linearGradient>
	<path class="st1" d="M369.2,350.3c0-5.5,0.9-10.1,2.7-13.8c1.8-3.8,4.2-6.8,7.2-9.2c3-2.3,6.6-4,10.7-5c4.1-1,8.4-1.5,13-1.5h24.9
		V352h-16.9v-16.5h-5.8c-2.6,0-5,0.3-7.3,0.8c-2.3,0.5-4.3,1.4-6,2.5c-1.7,1.2-3,2.7-4,4.5c-1,1.9-1.5,4.2-1.5,6.9v48.4h-16.9V350.3
		z"/>
	<linearGradient id="SVGID_4_" gradientUnits="userSpaceOnUse" x1="184.8451" y1="66.3661" x2="726.3148" y2="609.9103">
		<stop  offset="0" style="stop-color:#3BC5F3"/>
		<stop  offset="1" style="stop-color:#3751A2"/>
	</linearGradient>
	<path class="st2" d="M457.2,396.7c-4.1-1.3-7.6-3.5-10.7-6.6c-3-3.1-5.4-7.1-7.2-12c-1.8-4.9-2.7-11-2.7-18.3
		c0-7.3,0.9-13.4,2.7-18.3c1.8-4.9,4.2-8.9,7.2-12c3-3.1,6.6-5.3,10.7-6.6c4.1-1.3,8.4-2,13-2h29v14.7h-26.8c-2.3,0-4.4,0.3-6.4,0.8
		c-2,0.6-3.8,1.5-5.4,2.8c-1.6,1.3-3,3-4.1,5.2c-1.1,2.2-1.9,4.9-2.5,8.1h45.1v14.8h-45.1c0.5,3.3,1.3,6,2.5,8.2
		c1.1,2.2,2.5,3.9,4.1,5.2c1.6,1.3,3.4,2.2,5.4,2.7c2,0.5,4.1,0.8,6.4,0.8h26.8v14.7h-29C465.6,398.8,461.3,398.1,457.2,396.7z"/>
	<linearGradient id="SVGID_5_" gradientUnits="userSpaceOnUse" x1="216.7447" y1="34.5883" x2="758.2143" y2="578.1325">
		<stop  offset="0" style="stop-color:#3BC5F3"/>
		<stop  offset="1" style="stop-color:#3751A2"/>
	</linearGradient>
	<path class="st3" d="M514.7,352.7h51.9v14.3h-51.9V352.7z"/>
	<linearGradient id="SVGID_6_" gradientUnits="userSpaceOnUse" x1="244.4" y1="7.0385" x2="785.8696" y2="550.5827">
		<stop  offset="0" style="stop-color:#3BC5F3"/>
		<stop  offset="1" style="stop-color:#3751A2"/>
	</linearGradient>
	<path class="st4" d="M599.2,424.7h-16.9V320.8h37.9c4.6,0,8.9,0.7,13,2c4.1,1.3,7.6,3.6,10.6,6.6c3,3.1,5.4,7.1,7.2,12
		c1.8,4.9,2.7,11,2.7,18.3c0,7.3-0.9,13.4-2.7,18.3c-1.8,4.9-4.2,8.9-7.2,12c-3,3.1-6.6,5.3-10.6,6.6c-4.1,1.3-8.4,2-13,2h-21V424.7
		z M618,384.1c2.6,0,5-0.4,7.3-1.2c2.3-0.8,4.3-2.1,6-4s3-4.4,4-7.5s1.5-7,1.5-11.7s-0.5-8.6-1.5-11.7c-1-3.1-2.3-5.6-4-7.5
		c-1.7-1.9-3.7-3.2-6-4c-2.3-0.8-4.7-1.2-7.3-1.2h-18.8v48.6H618z"/>
	<linearGradient id="SVGID_7_" gradientUnits="userSpaceOnUse" x1="294.273" y1="-42.6441" x2="835.7426" y2="500.9001">
		<stop  offset="0" style="stop-color:#3BC5F3"/>
		<stop  offset="1" style="stop-color:#3751A2"/>
	</linearGradient>
	<path class="st5" d="M661.5,374.5c0-4.6,0.6-8.4,1.8-11.6c1.2-3.1,2.9-5.6,4.9-7.5c2.1-1.9,4.5-3.2,7.3-4c2.8-0.8,5.8-1.2,9-1.2
		H716c0-2.7-0.5-5-1.6-6.9c-1-1.9-2.4-3.4-4.1-4.5c-1.7-1.1-3.7-1.9-5.9-2.5c-2.3-0.5-4.7-0.8-7.3-0.8h-30.5v-14.7h32.7
		c4.6,0,8.9,0.5,12.9,1.5s7.6,2.7,10.7,5c3.1,2.3,5.5,5.4,7.3,9.1c1.8,3.7,2.7,8.3,2.7,13.8v48.6h-48.3c-3.2,0-6.2-0.4-9-1.2
		c-2.8-0.8-5.3-2.2-7.3-4.1c-2.1-1.9-3.7-4.4-4.9-7.5C662.1,382.8,661.5,379,661.5,374.5z M678.4,374.5c0,3.6,1,6,2.9,7.5
		c1.9,1.4,4.2,2.1,6.8,2.1H716v-19.4h-27.9c-2.6,0-4.9,0.7-6.8,2.1C679.4,368.2,678.4,370.8,678.4,374.5z"/>
	<linearGradient id="SVGID_8_" gradientUnits="userSpaceOnUse" x1="334.402" y1="-82.62" x2="875.8716" y2="460.9243">
		<stop  offset="0" style="stop-color:#3BC5F3"/>
		<stop  offset="1" style="stop-color:#3751A2"/>
	</linearGradient>
	<path class="st6" d="M745.9,350.3c0-5.5,0.9-10.1,2.7-13.8c1.8-3.8,4.2-6.8,7.2-9.2c3-2.3,6.6-4,10.7-5c4.1-1,8.4-1.5,13-1.5h24.9
		V352h-16.9v-16.5h-5.8c-2.6,0-5,0.3-7.3,0.8c-2.3,0.5-4.3,1.4-6,2.5c-1.7,1.2-3,2.7-4,4.5c-1,1.9-1.5,4.2-1.5,6.9v48.4h-16.9V350.3
		z"/>
	<linearGradient id="SVGID_9_" gradientUnits="userSpaceOnUse" x1="372.5042" y1="-120.5767" x2="913.9738" y2="422.9675">
		<stop  offset="0" style="stop-color:#3BC5F3"/>
		<stop  offset="1" style="stop-color:#3751A2"/>
	</linearGradient>
	<path class="st7" d="M815,294.9h18.2v60.9l30.5-34.9h23.4l-34.7,39l34.7,39h-23.4l-30.5-34.9v34.9H815V294.9z"/>
	<linearGradient id="SVGID_10_" gradientUnits="userSpaceOnUse" x1="405.2335" y1="-153.1811" x2="946.7031" y2="390.3631">
		<stop  offset="0" style="stop-color:#3BC5F3"/>
		<stop  offset="1" style="stop-color:#3751A2"/>
	</linearGradient>
	<path class="st8" d="M894.9,294.9h16.9v16.9h-16.9V294.9z M894.9,320.8h16.9v77.9h-16.9V320.8z"/>
	<linearGradient id="SVGID_11_" gradientUnits="userSpaceOnUse" x1="424.0424" y1="-171.9183" x2="965.5121" y2="371.6259">
		<stop  offset="0" style="stop-color:#3BC5F3"/>
		<stop  offset="1" style="stop-color:#3751A2"/>
	</linearGradient>
	<path class="st9" d="M927.3,320.8h35.3c4.6,0,8.9,0.5,13,1.5c4.1,1,7.6,2.7,10.7,5c3,2.3,5.4,5.4,7.2,9.2c1.8,3.8,2.7,8.4,2.7,13.8
		v48.4h-16.9v-48.4c0-2.8-0.5-5.1-1.5-6.9c-1-1.9-2.3-3.4-4-4.5c-1.7-1.2-3.7-2-6-2.5c-2.3-0.5-4.7-0.8-7.3-0.8h-16.2v63.2h-16.9
		V320.8z"/>
	<linearGradient id="SVGID_12_" gradientUnits="userSpaceOnUse" x1="463.2986" y1="-211.0247" x2="1004.7682" y2="332.5196">
		<stop  offset="0" style="stop-color:#3BC5F3"/>
		<stop  offset="1" style="stop-color:#3751A2"/>
	</linearGradient>
	<path class="st10" d="M1047.5,410.1c3.8,0,7-0.8,9.7-2.5c2.6-1.7,4-4.6,4-8.8h-21c-4.6,0-8.9-0.7-13-2c-4.1-1.3-7.6-3.5-10.7-6.6
		c-3-3.1-5.4-7.1-7.2-12c-1.8-4.9-2.7-11-2.7-18.3c0-7.3,0.9-13.4,2.7-18.3c1.8-4.9,4.2-8.9,7.2-12c3-3.1,6.6-5.3,10.7-6.6
		c4.1-1.3,8.4-2,13-2h37.9v77.9c0,4.8-0.7,8.9-2,12.2c-1.3,3.3-3.2,6-5.5,8c-2.3,2-5.1,3.5-8.2,4.4c-3.1,0.9-6.5,1.4-10,1.4h-40.5
		v-14.7H1047.5z M1061.1,384.1v-48.6h-18.8c-2.6,0-5,0.4-7.3,1.2c-2.3,0.8-4.3,2.1-6,4c-1.7,1.9-3,4.4-4,7.5c-1,3.1-1.5,7-1.5,11.7
		s0.5,8.6,1.5,11.7c1,3.1,2.3,5.6,4,7.5c1.7,1.9,3.7,3.2,6,4c2.3,0.8,4.7,1.2,7.3,1.2H1061.1z"/>
</g>
<g>
	<linearGradient id="SVGID_13_" gradientUnits="userSpaceOnUse" x1="56.3264" y1="194.3942" x2="597.7961" y2="737.9385">
		<stop  offset="0" style="stop-color:#3BC5F3"/>
		<stop  offset="1" style="stop-color:#3751A2"/>
	</linearGradient>
	<path class="st11" d="M328.1,473.1c-0.7,0-1.4-0.1-2.1-0.3c-0.7-0.2-1.3-0.5-1.9-0.9c-0.6-0.4-1.1-0.8-1.4-1.3
		c-0.4-0.5-0.6-1-0.8-1.4l0.8-0.4v4h-3.2v-23.2h3.2v10.6l-0.5-0.3c0.1-0.5,0.3-1,0.7-1.4c0.4-0.5,0.8-0.9,1.4-1.2
		c0.6-0.4,1.2-0.7,1.8-0.9c0.6-0.2,1.3-0.3,2-0.3c1.5,0,2.8,0.4,4,1.1c1.2,0.7,2.1,1.7,2.7,3c0.7,1.3,1,2.8,1,4.4
		c0,1.7-0.3,3.1-1,4.4c-0.7,1.3-1.6,2.3-2.7,3.1C330.8,472.8,329.5,473.1,328.1,473.1z M327.5,470.2c1,0,1.8-0.2,2.6-0.7
		c0.8-0.5,1.4-1.2,1.8-2c0.4-0.9,0.7-1.8,0.7-2.9c0-1.1-0.2-2-0.6-2.9c-0.4-0.8-1-1.5-1.8-2c-0.8-0.5-1.6-0.7-2.6-0.7
		s-1.9,0.2-2.6,0.7c-0.8,0.5-1.4,1.2-1.8,2c-0.4,0.9-0.7,1.8-0.7,2.9c0,1.1,0.2,2.1,0.7,2.9c0.4,0.9,1,1.5,1.8,2
		C325.7,469.9,326.5,470.2,327.5,470.2z"/>
	<linearGradient id="SVGID_14_" gradientUnits="userSpaceOnUse" x1="81.9241" y1="168.8943" x2="623.3937" y2="712.4385">
		<stop  offset="0" style="stop-color:#3BC5F3"/>
		<stop  offset="1" style="stop-color:#3751A2"/>
	</linearGradient>
	<path class="st12" d="M372.8,452.6c-0.7,0-1.2-0.2-1.6-0.5c-0.4-0.4-0.6-0.9-0.6-1.5c0-0.6,0.2-1.1,0.6-1.5
		c0.4-0.4,0.9-0.6,1.6-0.6c0.7,0,1.2,0.2,1.6,0.5c0.4,0.4,0.6,0.9,0.6,1.5c0,0.6-0.2,1.1-0.6,1.5C374,452.4,373.5,452.6,372.8,452.6
		z M371.3,472.8v-16.5h3.2v16.5H371.3z"/>
	<linearGradient id="SVGID_15_" gradientUnits="userSpaceOnUse" x1="103.0528" y1="147.8462" x2="644.5225" y2="691.3904">
		<stop  offset="0" style="stop-color:#3BC5F3"/>
		<stop  offset="1" style="stop-color:#3751A2"/>
	</linearGradient>
	<path class="st13" d="M411,472.8v-23.3h3.2v23.3H411z M414,467.7l-0.2-3.5l7.9-7.8h4.4L414,467.7z M422.2,472.8l-6.2-7.3l2.3-2.1
		l8.1,9.4H422.2z"/>
	<linearGradient id="SVGID_16_" gradientUnits="userSpaceOnUse" x1="127.3355" y1="123.6562" x2="668.8052" y2="667.2004">
		<stop  offset="0" style="stop-color:#3BC5F3"/>
		<stop  offset="1" style="stop-color:#3751A2"/>
	</linearGradient>
	<path class="st14" d="M467.4,473.1c-1.7,0-3.2-0.4-4.5-1.1c-1.3-0.7-2.3-1.7-3.1-3c-0.7-1.3-1.1-2.7-1.1-4.3c0-1.3,0.2-2.5,0.6-3.6
		c0.4-1.1,1-2,1.7-2.8c0.7-0.8,1.6-1.4,2.7-1.8s2.2-0.6,3.4-0.6c1.1,0,2.1,0.2,3,0.6c0.9,0.4,1.7,1,2.4,1.7c0.7,0.7,1.2,1.6,1.6,2.5
		c0.4,1,0.5,2,0.5,3.2l0,1.4h-13.5l-0.7-2.6h11.4l-0.5,0.5v-0.8c-0.1-0.7-0.3-1.3-0.7-1.9c-0.4-0.5-0.9-1-1.5-1.3
		c-0.6-0.3-1.3-0.5-2-0.5c-1.1,0-2.1,0.2-2.9,0.6c-0.8,0.4-1.4,1.1-1.8,1.9c-0.4,0.8-0.6,1.9-0.6,3.1c0,1.2,0.2,2.2,0.7,3
		c0.5,0.9,1.2,1.5,2,2c0.9,0.5,1.9,0.7,3.1,0.7c0.8,0,1.6-0.1,2.3-0.4c0.7-0.3,1.5-0.8,2.3-1.5l1.6,2.3c-0.5,0.5-1.1,0.9-1.8,1.3
		c-0.7,0.4-1.5,0.7-2.3,0.9C469,473,468.2,473.1,467.4,473.1z"/>
	<linearGradient id="SVGID_17_" gradientUnits="userSpaceOnUse" x1="172.6826" y1="78.4822" x2="714.1522" y2="622.0264">
		<stop  offset="0" style="stop-color:#3BC5F3"/>
		<stop  offset="1" style="stop-color:#3751A2"/>
	</linearGradient>
	<path class="st15" d="M557.1,473.1c-1.5,0-2.9-0.4-4.1-1.1c-1.2-0.8-2.2-1.8-2.9-3.1c-0.7-1.3-1.1-2.8-1.1-4.4
		c0-1.6,0.4-3.1,1.1-4.4c0.7-1.3,1.7-2.3,2.9-3.1c1.2-0.8,2.6-1.1,4.1-1.1c1.5,0,2.8,0.3,4,0.9c1.2,0.6,2.1,1.4,2.8,2.4l-1.8,2.2
		c-0.3-0.5-0.8-0.9-1.3-1.3c-0.5-0.4-1.1-0.7-1.7-0.9s-1.2-0.3-1.7-0.3c-1,0-1.9,0.2-2.7,0.7c-0.8,0.5-1.4,1.2-1.9,2
		c-0.5,0.9-0.7,1.8-0.7,2.9c0,1.1,0.2,2,0.7,2.9c0.5,0.9,1.1,1.5,1.9,2c0.8,0.5,1.7,0.8,2.6,0.8c0.6,0,1.1-0.1,1.7-0.3
		c0.5-0.2,1.1-0.5,1.6-0.9c0.5-0.4,1-0.8,1.4-1.4l1.8,2.2c-0.7,0.9-1.6,1.7-2.9,2.3C559.7,472.8,558.4,473.1,557.1,473.1z"/>
	<linearGradient id="SVGID_18_" gradientUnits="userSpaceOnUse" x1="198.0039" y1="53.2575" x2="739.4735" y2="596.8018">
		<stop  offset="0" style="stop-color:#3BC5F3"/>
		<stop  offset="1" style="stop-color:#3751A2"/>
	</linearGradient>
	<path class="st16" d="M604.8,473.1c-1.4,0-2.6-0.4-3.7-1.1c-1.1-0.8-2-1.8-2.7-3.1c-0.7-1.3-1-2.8-1-4.4c0-1.7,0.3-3.1,1-4.4
		c0.7-1.3,1.6-2.3,2.8-3c1.2-0.7,2.5-1.1,3.9-1.1c0.9,0,1.6,0.1,2.4,0.4s1.3,0.6,1.9,1.1c0.5,0.5,1,1,1.3,1.6
		c0.3,0.6,0.6,1.2,0.6,1.9l-0.7-0.3v-4.3h3.3v16.5h-3.3v-3.9l0.8-0.2c-0.1,0.6-0.4,1.1-0.8,1.7c-0.4,0.5-0.9,1-1.5,1.4
		c-0.6,0.4-1.3,0.8-2,1C606.3,473,605.6,473.1,604.8,473.1z M605.6,470.1c1,0,1.9-0.2,2.6-0.7c0.8-0.5,1.3-1.1,1.8-2
		c0.4-0.9,0.6-1.8,0.6-2.9c0-1.1-0.2-2-0.6-2.9c-0.4-0.8-1-1.5-1.8-2c-0.8-0.5-1.6-0.7-2.6-0.7c-1,0-1.8,0.2-2.6,0.7
		c-0.7,0.5-1.3,1.1-1.8,2c-0.4,0.8-0.6,1.8-0.6,2.9c0,1.1,0.2,2.1,0.6,2.9c0.4,0.9,1,1.5,1.8,2C603.8,469.9,604.7,470.1,605.6,470.1
		z"/>
	<linearGradient id="SVGID_19_" gradientUnits="userSpaceOnUse" x1="221.6978" y1="29.6541" x2="763.1674" y2="573.1983">
		<stop  offset="0" style="stop-color:#3BC5F3"/>
		<stop  offset="1" style="stop-color:#3751A2"/>
	</linearGradient>
	<path class="st17" d="M649.9,472.8v-16.5h3.3v5.2l-0.3-1.3c0.2-0.8,0.6-1.5,1.2-2.2c0.6-0.6,1.2-1.2,1.9-1.5
		c0.7-0.4,1.5-0.6,2.3-0.6c0.4,0,0.7,0,1,0.1s0.6,0.1,0.8,0.2l-0.9,3.5c-0.3-0.1-0.5-0.2-0.8-0.3c-0.3-0.1-0.6-0.1-0.9-0.1
		c-0.6,0-1.1,0.1-1.6,0.3c-0.5,0.2-1,0.5-1.4,0.9c-0.4,0.4-0.7,0.8-0.9,1.4c-0.2,0.5-0.3,1.1-0.3,1.7v9.1H649.9z"/>
	<linearGradient id="SVGID_20_" gradientUnits="userSpaceOnUse" x1="264.6413" y1="-13.1255" x2="806.1109" y2="530.4187">
		<stop  offset="0" style="stop-color:#3BC5F3"/>
		<stop  offset="1" style="stop-color:#3751A2"/>
	</linearGradient>
	<path class="st18" d="M743.1,473.1c-0.7,0-1.4-0.1-2.1-0.3c-0.7-0.2-1.3-0.5-1.9-0.9c-0.6-0.4-1.1-0.8-1.4-1.3
		c-0.4-0.5-0.6-1-0.8-1.4l0.8-0.4v4h-3.2v-23.2h3.2v10.6l-0.5-0.3c0.1-0.5,0.3-1,0.7-1.4c0.4-0.5,0.8-0.9,1.4-1.2
		c0.6-0.4,1.2-0.7,1.8-0.9c0.7-0.2,1.3-0.3,2-0.3c1.5,0,2.8,0.4,4,1.1c1.2,0.7,2.1,1.7,2.7,3c0.7,1.3,1,2.8,1,4.4
		c0,1.7-0.3,3.1-1,4.4s-1.6,2.3-2.7,3.1C745.9,472.8,744.6,473.1,743.1,473.1z M742.6,470.2c1,0,1.8-0.2,2.6-0.7
		c0.8-0.5,1.4-1.2,1.8-2c0.4-0.9,0.7-1.8,0.7-2.9c0-1.1-0.2-2-0.6-2.9c-0.4-0.8-1-1.5-1.8-2c-0.8-0.5-1.6-0.7-2.6-0.7
		s-1.9,0.2-2.6,0.7c-0.8,0.5-1.4,1.2-1.8,2c-0.4,0.9-0.7,1.8-0.7,2.9c0,1.1,0.2,2.1,0.7,2.9c0.4,0.9,1,1.5,1.8,2
		C740.7,469.9,741.6,470.2,742.6,470.2z"/>
	<linearGradient id="SVGID_21_" gradientUnits="userSpaceOnUse" x1="291.7742" y1="-40.1549" x2="833.2438" y2="503.3894">
		<stop  offset="0" style="stop-color:#3BC5F3"/>
		<stop  offset="1" style="stop-color:#3751A2"/>
	</linearGradient>
	<path class="st19" d="M791.6,473.1c-1.2,0-2.2-0.3-3.1-0.8c-0.9-0.5-1.5-1.3-2-2.3c-0.5-1-0.7-2.2-0.7-3.5v-10.2h3.2v9.3
		c0,1,0.2,1.8,0.5,2.5c0.3,0.7,0.7,1.2,1.3,1.6c0.6,0.4,1.3,0.6,2.1,0.6c0.6,0,1.2-0.1,1.7-0.3c0.5-0.2,0.9-0.5,1.3-0.8
		c0.4-0.4,0.7-0.8,0.9-1.3c0.2-0.5,0.3-1,0.3-1.6v-10h3.2v16.5h-3.2v-3.5l0.6-0.4c-0.3,0.8-0.7,1.5-1.3,2.1
		c-0.6,0.6-1.3,1.1-2.1,1.5C793.4,473,792.5,473.1,791.6,473.1z"/>
	<linearGradient id="SVGID_22_" gradientUnits="userSpaceOnUse" x1="315.4154" y1="-63.7058" x2="856.885" y2="479.8384">
		<stop  offset="0" style="stop-color:#3BC5F3"/>
		<stop  offset="1" style="stop-color:#3751A2"/>
	</linearGradient>
	<path class="st20" d="M841.9,473.1c-1.4,0-2.6-0.2-3.8-0.7c-1.1-0.5-2-1.2-2.8-2.1l2.2-1.9c0.6,0.7,1.3,1.3,2.1,1.6
		c0.7,0.3,1.6,0.5,2.5,0.5c0.4,0,0.7,0,1.1-0.1c0.3-0.1,0.6-0.2,0.9-0.4c0.2-0.2,0.4-0.4,0.6-0.7c0.1-0.3,0.2-0.6,0.2-0.9
		c0-0.5-0.2-1-0.6-1.3c-0.2-0.1-0.5-0.3-1-0.5c-0.5-0.2-1-0.4-1.7-0.6c-1.2-0.3-2.2-0.7-3-1.1c-0.8-0.4-1.4-0.9-1.8-1.4
		c-0.3-0.4-0.5-0.8-0.7-1.3c-0.1-0.5-0.2-1-0.2-1.6c0-0.7,0.2-1.3,0.5-1.9c0.3-0.6,0.7-1.1,1.3-1.5c0.5-0.4,1.2-0.8,1.9-1
		s1.5-0.3,2.3-0.3c0.8,0,1.5,0.1,2.3,0.3c0.8,0.2,1.5,0.5,2.1,0.9c0.6,0.4,1.2,0.9,1.6,1.4l-1.9,2c-0.4-0.4-0.8-0.8-1.3-1.1
		s-1-0.5-1.4-0.7c-0.5-0.2-0.9-0.3-1.3-0.3c-0.4,0-0.8,0-1.2,0.1c-0.4,0.1-0.7,0.2-0.9,0.4s-0.4,0.4-0.6,0.6
		c-0.1,0.3-0.2,0.5-0.2,0.9c0,0.3,0.1,0.5,0.2,0.8c0.1,0.2,0.3,0.4,0.5,0.6c0.2,0.2,0.6,0.3,1,0.5c0.5,0.2,1,0.4,1.8,0.5
		c1,0.3,1.9,0.6,2.6,0.9c0.7,0.3,1.2,0.7,1.6,1.1c0.4,0.4,0.7,0.9,0.9,1.4c0.2,0.5,0.3,1.1,0.3,1.8c0,0.9-0.3,1.8-0.8,2.5
		c-0.5,0.7-1.3,1.3-2.2,1.7C844,472.9,843,473.1,841.9,473.1z"/>
	<linearGradient id="SVGID_23_" gradientUnits="userSpaceOnUse" x1="361.5361" y1="-109.6505" x2="903.0057" y2="433.8937">
		<stop  offset="0" style="stop-color:#3BC5F3"/>
		<stop  offset="1" style="stop-color:#3751A2"/>
	</linearGradient>
	<path class="st21" d="M928.7,472.8l-7-16.5h3.5l5,12.4l-0.6,0.3l5.4-12.7h3.3l-7.3,16.5H928.7z"/>
	<linearGradient id="SVGID_24_" gradientUnits="userSpaceOnUse" x1="385.7097" y1="-133.7318" x2="927.1793" y2="409.8124">
		<stop  offset="0" style="stop-color:#3BC5F3"/>
		<stop  offset="1" style="stop-color:#3751A2"/>
	</linearGradient>
	<path class="st22" d="M978.7,473.1c-1.4,0-2.6-0.4-3.7-1.1c-1.1-0.8-2-1.8-2.7-3.1c-0.7-1.3-1-2.8-1-4.4c0-1.7,0.3-3.1,1-4.4
		c0.7-1.3,1.6-2.3,2.8-3c1.2-0.7,2.5-1.1,3.9-1.1c0.9,0,1.6,0.1,2.4,0.4s1.3,0.6,1.9,1.1c0.5,0.5,1,1,1.3,1.6
		c0.3,0.6,0.6,1.2,0.6,1.9l-0.7-0.3v-4.3h3.3v16.5h-3.3v-3.9l0.8-0.2c-0.1,0.6-0.4,1.1-0.8,1.7c-0.4,0.5-0.9,1-1.5,1.4
		c-0.6,0.4-1.3,0.8-2,1C980.3,473,979.5,473.1,978.7,473.1z M979.6,470.1c1,0,1.9-0.2,2.6-0.7c0.8-0.5,1.3-1.1,1.8-2
		c0.4-0.9,0.6-1.8,0.6-2.9c0-1.1-0.2-2-0.6-2.9c-0.4-0.8-1-1.5-1.8-2c-0.8-0.5-1.6-0.7-2.6-0.7c-1,0-1.8,0.2-2.6,0.7
		c-0.7,0.5-1.3,1.1-1.8,2c-0.4,0.8-0.6,1.8-0.6,2.9c0,1.1,0.2,2.1,0.6,2.9c0.4,0.9,1,1.5,1.8,2C977.8,469.9,978.6,470.1,979.6,470.1
		z"/>
	<linearGradient id="SVGID_25_" gradientUnits="userSpaceOnUse" x1="409.7733" y1="-157.7036" x2="951.2429" y2="385.8407">
		<stop  offset="0" style="stop-color:#3BC5F3"/>
		<stop  offset="1" style="stop-color:#3751A2"/>
	</linearGradient>
	<path class="st23" d="M1023.8,472.8v-16.5h3.2v3.4l-0.6,0.4c0.2-0.7,0.6-1.4,1.2-2c0.6-0.6,1.3-1.1,2.2-1.5
		c0.8-0.4,1.7-0.6,2.6-0.6c1.3,0,2.3,0.2,3.2,0.7c0.8,0.5,1.5,1.2,1.9,2.3c0.4,1,0.6,2.3,0.6,3.8v10.1h-3.2V463
		c0-0.9-0.1-1.7-0.4-2.3c-0.3-0.6-0.6-1.1-1.2-1.4c-0.5-0.3-1.2-0.4-2-0.4c-0.6,0-1.2,0.1-1.7,0.3c-0.5,0.2-1,0.5-1.4,0.8
		c-0.4,0.4-0.7,0.8-0.9,1.2c-0.2,0.5-0.3,1-0.3,1.5v10h-1.6c-0.3,0-0.5,0-0.8,0C1024.4,472.8,1024.1,472.8,1023.8,472.8z"/>
</g>
</svg>
